<?xml version="1.0" standalone="no"?>
<!DOCTYPE svg PUBLIC "-//W3C//DTD SVG 20010904//EN"
 "http://www.w3.org/TR/2001/REC-SVG-20010904/DTD/svg10.dtd">
<svg version="1.0" xmlns="http://www.w3.org/2000/svg"
 width="1200.000000pt" height="1200.000000pt" viewBox="0 0 1200.000000 1200.000000"
 preserveAspectRatio="xMidYMid meet">
<metadata>
Created by potrace 1.14, written by Peter Selinger 2001-2017
</metadata>
<g transform="translate(0.000000,1200.000000) scale(0.100000,-0.100000)"
fill="#000000" stroke="none">
<path d="M5699 11996 c-2 -2 -57 -7 -121 -10 -65 -4 -128 -9 -140 -11 -13 -2
-53 -6 -90 -10 -37 -3 -77 -8 -90 -10 -13 -2 -45 -6 -73 -10 -74 -9 -114 -15
-175 -26 -30 -5 -68 -11 -85 -14 -16 -3 -41 -8 -55 -10 -14 -3 -37 -8 -51 -10
-258 -47 -788 -201 -966 -281 -17 -8 -34 -14 -38 -14 -23 0 -351 -148 -530
-240 -414 -210 -773 -446 -1123 -738 -165 -137 -193 -162 -407 -377 -226 -226
-345 -360 -526 -595 -130 -169 -350 -499 -426 -639 -14 -25 -41 -73 -59 -106
-108 -189 -258 -512 -351 -753 -77 -203 -208 -624 -227 -732 -2 -14 -9 -43
-14 -65 -24 -91 -79 -389 -96 -520 -12 -88 -16 -123 -22 -190 -3 -38 -8 -78
-10 -87 -18 -98 -25 -723 -11 -948 6 -92 20 -233 32 -325 2 -16 6 -52 10 -80
3 -27 7 -61 10 -75 5 -34 15 -99 20 -135 3 -16 7 -41 10 -55 3 -14 8 -41 11
-60 10 -56 85 -383 89 -390 2 -3 6 -17 8 -31 3 -13 17 -64 32 -114 14 -49 28
-97 30 -105 12 -53 127 -371 182 -505 74 -181 216 -478 292 -609 28 -49 51
-91 51 -93 0 -20 258 -417 373 -573 289 -392 663 -787 1032 -1089 239 -195
527 -396 763 -532 248 -144 427 -234 657 -334 61 -26 119 -51 130 -56 126 -55
523 -190 664 -225 9 -2 70 -17 136 -34 258 -65 582 -123 825 -146 25 -2 63 -6
85 -9 225 -26 892 -26 1090 0 17 2 57 7 90 10 89 8 147 15 172 20 12 3 41 7
65 10 46 6 149 22 184 29 12 2 37 7 55 10 183 31 456 100 704 177 88 28 169
54 180 59 11 4 65 25 120 45 167 62 421 174 595 263 91 47 179 92 195 100 17
9 32 18 35 21 3 3 25 17 50 30 73 39 335 204 338 213 2 4 8 8 13 8 34 0 489
354 694 540 65 59 357 351 415 415 117 130 308 366 411 507 66 91 229 336 229
344 0 4 6 15 14 23 43 48 261 452 351 651 103 228 228 551 273 710 6 19 26 90
46 157 20 68 38 133 40 145 3 13 16 70 30 128 23 100 60 284 72 359 3 18 7 41
9 50 3 18 21 145 30 211 3 25 8 72 10 105 3 33 7 74 10 90 27 175 27 873 0
1090 -2 17 -7 62 -10 100 -4 39 -8 81 -10 95 -2 14 -7 48 -10 75 -3 28 -10 75
-15 105 -5 30 -12 73 -16 95 -20 138 -73 376 -132 596 -22 81 -127 410 -142
444 -5 11 -28 70 -51 130 -80 210 -214 496 -337 720 -52 96 -176 300 -184 303
-4 2 -8 8 -8 14 0 14 -154 237 -263 383 -190 252 -318 398 -571 650 -210 209
-214 212 -391 360 -192 159 -497 381 -665 482 -19 11 -61 37 -94 57 -32 20
-60 36 -61 36 -2 0 -41 22 -87 48 -281 162 -693 345 -1033 457 -201 67 -504
148 -670 181 -5 1 -35 6 -65 13 -70 14 -94 18 -215 37 -55 8 -111 17 -125 20
-14 2 -50 6 -80 10 -30 3 -65 7 -77 9 -12 2 -61 6 -110 10 -48 4 -101 9 -118
12 -33 5 -731 14 -736 9z"/>
</g>
</svg>
