<svg width="2569" height="1827" viewBox="0 0 2569 1827" fill="none" xmlns="http://www.w3.org/2000/svg">
<g id="Mappped">
<path id="room 1" opacity="0.01" d="M723 865.5L899.5 782.5V516.5L723 599V865.5Z" fill="#F5BCC3"/>
<path id="room 2" opacity="0.01" d="M1024 724L1200.5 641V375L1024 457.5V724Z" fill="#F5BCC3"/>
<path id="room 3" opacity="0.01" d="M1312 589L1488.5 506V240L1312 322.5V589Z" fill="#F5BCC3"/>
<path id="room 4" opacity="0.01" d="M1932 369V637L1759.5 523.5V259.5L1932 369Z" fill="#F5BCC3"/>
<g id="Team EN">
<path d="M787.556 525.421L790.403 524.17L790.43 511.244L794.918 509.273L794.923 506.498L783.089 511.696L783.083 514.471L787.582 512.495L787.556 525.421Z" fill="#1A64D8"/>
<path d="M803.038 515.409C802.031 516.371 800.856 517.211 799.596 517.764C797.924 518.498 796.655 518.317 796.383 516.888L803.729 513.661C804.404 509.264 802.038 507.739 798.916 509.111C795.899 510.436 793.692 513.785 793.686 517.184C793.678 520.64 795.981 521.951 799.58 520.37C801.062 519.719 802.429 518.691 803.414 517.646L803.038 515.409ZM796.429 514.881C796.548 513.57 797.524 512.217 798.974 511.58C800.371 510.966 801.227 511.538 801.299 512.742L796.429 514.881Z" fill="#1A64D8"/>
<path d="M810.187 515.711C811.764 515.018 812.834 513.901 813.503 512.683L813.553 514.001L816.21 512.834L816.233 501.735L813.576 502.902L813.52 504.266C812.855 503.646 811.787 503.457 810.21 504.149C807.416 505.377 805.304 508.695 805.298 512.06C805.291 515.424 807.392 516.938 810.187 515.711ZM813.501 508.456C813.497 510.237 812.341 512.131 810.721 512.842C809.091 513.558 807.993 512.655 807.997 510.874C808 509.105 809.104 507.281 810.734 506.565C812.354 505.853 813.505 506.687 813.501 508.456Z" fill="#1A64D8"/>
<path d="M824.543 497.854C823.05 498.509 821.948 499.733 821.427 500.735L821.377 499.475L818.794 500.61L818.772 511.709L821.492 510.514L821.505 504.305C821.508 502.768 822.558 501.475 823.733 500.959C824.876 500.457 825.753 500.903 825.749 502.441L825.737 508.649L828.457 507.454L828.47 501.176C828.473 499.673 829.544 498.406 830.708 497.895C831.873 497.383 832.739 497.834 832.736 499.372L832.723 505.58L835.444 504.385L835.458 497.414C835.463 494.709 833.805 493.785 831.476 494.808C829.962 495.473 828.669 496.827 827.947 498.322C827.357 497.322 826.088 497.175 824.543 497.854Z" fill="#1A64D8"/>
</g>
<g id="Team GE">
<path d="M788.236 529.718C787.268 530.143 786.473 530.2 785.853 529.889C785.233 529.578 784.765 529.003 784.449 528.164C784.147 527.319 783.998 526.312 784 525.144C784.004 523.281 784.325 521.69 784.963 520.368C785.601 519.047 786.505 517.987 787.677 517.189C788.371 516.727 788.826 516.235 789.044 515.713C789.262 515.192 789.371 514.599 789.373 513.937C789.374 513.479 789.28 513.133 789.093 512.9C788.92 512.645 788.646 512.6 788.27 512.765C787.909 512.923 787.634 513.178 787.446 513.529C787.272 513.874 787.184 514.283 787.183 514.756C787.183 514.961 787.19 515.148 787.204 515.315C787.232 515.46 787.261 515.613 787.29 515.774L785.057 516.755C784.999 516.575 784.956 516.397 784.928 516.22C784.899 516.028 784.885 515.805 784.886 515.553C784.888 514.542 785.2 513.593 785.823 512.704C786.446 511.816 787.27 511.146 788.296 510.695C789.409 510.206 790.254 510.182 790.83 510.623C791.422 511.041 791.716 511.787 791.714 512.861C791.713 513.445 791.603 514.069 791.385 514.732C791.167 515.396 790.747 516.022 790.125 516.61L790.125 516.705C790.963 516.7 791.575 517.109 791.964 517.932C792.366 518.749 792.566 519.899 792.563 521.383C792.561 522.551 792.414 523.688 792.123 524.793C791.832 525.899 791.368 526.883 790.731 527.747C790.094 528.61 789.262 529.267 788.236 529.718ZM788.284 527.45C788.92 527.17 789.383 526.604 789.674 525.751C789.964 524.914 790.111 523.816 790.113 522.459C790.116 521.101 789.974 520.131 789.686 519.547C789.398 518.964 788.937 518.812 788.301 519.091C787.665 519.371 787.202 519.929 786.911 520.766C786.621 521.604 786.474 522.709 786.471 524.082C786.469 525.408 786.611 526.371 786.899 526.97C787.186 527.569 787.648 527.729 788.284 527.45Z" fill="#1A64D8"/>
<path d="M798.81 525.073C797.798 525.518 796.967 525.63 796.318 525.411C795.683 525.185 795.215 524.744 794.913 524.088C794.611 523.432 794.461 522.686 794.463 521.849C794.464 521.265 794.508 520.717 794.596 520.206C794.698 519.688 794.815 519.234 794.945 518.846L797.2 517.856C797.127 518.14 797.054 518.511 796.981 518.969C796.908 519.411 796.871 519.956 796.869 520.603C796.868 521.124 796.918 521.591 797.018 522.004C797.133 522.427 797.327 522.728 797.601 522.907C797.875 523.087 798.265 523.065 798.771 522.843C799.465 522.538 799.957 522.038 800.247 521.343C800.537 520.648 800.683 519.787 800.685 518.761L800.704 509.645C800.705 509.03 800.619 508.57 800.447 508.268C800.274 507.965 799.978 507.906 799.559 508.09C799.14 508.274 798.843 508.594 798.669 509.049C798.495 509.488 798.407 510 798.406 510.584L798.399 513.827L796.058 514.856L796.065 511.636C796.066 511.052 795.966 510.63 795.764 510.372C795.562 510.114 795.209 510.096 794.703 510.318L793.727 510.746L793.732 508.426L794.924 507.902C795.546 507.629 796.037 507.571 796.397 507.728C796.758 507.885 797.024 508.241 797.197 508.796L797.262 508.768C797.451 508.054 797.763 507.428 798.197 506.89C798.646 506.331 799.217 505.898 799.911 505.594C800.98 505.124 801.781 505.174 802.314 505.744C802.848 506.298 803.113 507.191 803.11 508.423L803.091 517.941C803.088 519.614 802.724 521.067 801.999 522.3C801.275 523.533 800.212 524.458 798.81 525.073Z" fill="#1A64D8"/>
<path d="M809.467 514.714C808.152 515.292 807.134 515.195 806.414 514.423C805.708 513.645 805.357 512.143 805.362 509.917L805.377 502.412C805.379 501.48 805.561 500.635 805.924 499.877C806.286 499.102 806.764 498.435 807.357 497.875C807.965 497.308 808.637 496.863 809.374 496.54L812.843 495.016L812.838 497.218L809.673 498.608C809.095 498.862 808.632 499.231 808.285 499.715C807.952 500.177 807.785 500.739 807.783 501.402L807.782 502.254C807.781 502.507 807.773 502.778 807.758 503.069C807.758 503.353 807.743 503.715 807.713 504.153L807.799 504.115C808.423 502.627 809.292 501.638 810.405 501.149C811.489 500.673 812.318 500.877 812.894 501.759C813.484 502.635 813.777 504.115 813.773 506.199C813.769 508.22 813.397 509.991 812.658 511.515C811.933 513.032 810.869 514.098 809.467 514.714ZM809.494 512.455C810.144 512.17 810.607 511.596 810.883 510.733C811.174 509.848 811.321 508.704 811.323 507.299C811.326 505.91 811.191 504.904 810.918 504.283C810.645 503.646 810.219 503.455 809.641 503.708C808.991 503.994 808.513 504.535 808.209 505.331C807.918 506.106 807.772 507.171 807.769 508.529L807.768 509.026C807.762 511.82 808.337 512.963 809.494 512.455Z" fill="#1A64D8"/>
<path d="M823.445 514.252C823.086 513.448 822.61 512.931 822.019 512.702C821.427 512.489 820.792 512.531 820.112 512.83C819.347 513.166 818.609 513.719 817.9 514.488L817.21 513.111C817.456 512.846 817.745 512.584 818.078 512.328C818.425 512.065 818.786 511.835 819.162 511.639L819.162 511.544C818.022 511.351 817.142 510.696 816.524 509.58C815.905 508.464 815.597 507.046 815.601 505.325C815.605 503.242 815.919 501.479 816.543 500.038C817.167 498.597 818.035 497.632 819.148 497.143C819.769 496.87 820.325 496.823 820.816 497.002C821.307 497.181 821.645 497.631 821.831 498.354L821.896 498.325C822.1 497.431 822.463 496.673 822.984 496.05C823.505 495.427 824.076 494.978 824.698 494.705C825.623 494.299 826.374 494.245 826.951 494.544C827.528 494.827 827.945 495.4 828.203 496.265C828.476 497.123 828.611 498.215 828.608 499.541C828.606 500.709 828.466 501.842 828.19 502.942C827.913 504.041 827.485 505.01 826.906 505.848C826.327 506.686 825.567 507.311 824.628 507.724C823.645 508.155 822.858 508.209 822.267 507.885C821.675 507.562 821.251 506.976 820.992 506.127C820.734 505.278 820.606 504.286 820.609 503.149L820.611 501.942C820.613 500.789 820.521 500.01 820.334 499.603C820.162 499.19 819.852 499.082 819.404 499.278C818.927 499.488 818.579 499.987 818.361 500.777C818.157 501.561 818.054 502.702 818.051 504.202C818.048 505.67 818.211 506.804 818.542 507.605C818.872 508.407 819.304 508.982 819.838 509.331C820.386 509.674 820.97 509.898 821.591 510.004C822.472 510.138 823.229 510.38 823.864 510.732C824.498 511.1 824.988 511.721 825.333 512.595L823.445 514.252ZM824.589 505.493C825.153 505.246 825.551 504.708 825.784 503.88C826.031 503.046 826.156 501.966 826.158 500.64C826.161 499.204 826.048 498.173 825.818 497.549C825.588 496.924 825.185 496.739 824.606 496.993C824.043 497.241 823.645 497.778 823.412 498.606C823.179 499.434 823.061 500.558 823.059 501.978C823.056 503.336 823.169 504.327 823.399 504.951C823.629 505.56 824.026 505.741 824.589 505.493Z" fill="#1A64D8"/>
<path d="M831.513 504.794C831.11 503.804 830.824 502.826 830.652 501.86C830.495 500.888 830.418 499.771 830.421 498.508C830.425 496.393 830.804 494.649 831.558 493.277C832.311 491.889 833.324 490.916 834.596 490.358C835.853 489.805 836.857 489.893 837.606 490.62C838.37 491.326 838.75 492.736 838.745 494.851C838.743 496.098 838.654 497.296 838.478 498.446C838.303 499.58 838.019 500.801 837.626 502.109L835.372 503.099C835.663 501.993 835.889 500.845 836.05 499.655C836.211 498.448 836.293 497.222 836.296 495.975C836.299 494.459 836.142 493.464 835.825 492.988C835.523 492.505 835.112 492.378 834.591 492.607C834.1 492.823 833.688 493.304 833.354 494.049C833.035 494.789 832.874 495.932 832.87 497.479C832.868 498.758 832.945 499.922 833.102 500.973C833.258 502.009 833.48 502.952 833.767 503.804L831.513 504.794Z" fill="#1A64D8"/>
</g>
<g id="History EN">
<path d="M1837.67 251.483L1835.06 249.807V256.145L1828.62 252.02V245.682L1826 244V259.678L1828.62 261.36V254.71L1835.06 258.835V265.484L1837.67 267.16V251.483Z" fill="#1A64D8"/>
<path d="M1842.69 270.375V259.292L1840.19 257.691V268.774L1842.69 270.375ZM1841.43 256.63C1842.28 257.172 1842.87 256.86 1842.87 255.855C1842.87 254.839 1842.28 253.766 1841.43 253.224C1840.59 252.682 1840 253.013 1840 254.017C1840 255.022 1840.59 256.088 1841.43 256.63Z" fill="#1A64D8"/>
<path d="M1848.47 267.317C1847.35 266.358 1846.94 265.82 1846.94 265.277C1846.94 264.619 1847.54 264.653 1848.76 265.438C1849.66 266.011 1850.9 267.085 1851.58 267.868L1851.79 265.592C1850.96 264.618 1849.8 263.622 1848.64 262.875C1846.16 261.286 1844.54 261.672 1844.54 263.738C1844.54 265.574 1845.42 267.22 1847.22 268.742L1848.33 269.712C1849.42 270.641 1849.82 271.185 1849.82 271.774C1849.82 272.432 1849.31 272.402 1848.09 271.623C1847.14 271.012 1845.88 269.891 1844.95 268.837L1844.69 271.093C1845.54 272.132 1846.89 273.298 1848.29 274.195C1850.68 275.728 1852.23 275.489 1852.23 273.261C1852.23 271.345 1851.31 269.76 1849.46 268.172L1848.47 267.317Z" fill="#1A64D8"/>
<path d="M1859.86 272.761V270.302L1857.16 268.57V265.014L1854.74 263.463V267.018L1853.15 266.003V268.462L1854.73 269.471V274.458C1854.73 277.067 1856.11 279.21 1858.16 280.525C1858.92 281.011 1859.84 281.43 1860.41 281.532L1860.18 278.923C1859.66 278.76 1859.06 278.472 1858.6 278.173C1857.76 277.637 1857.22 276.781 1857.22 275.626V271.066L1859.86 272.761Z" fill="#1A64D8"/>
<path d="M1861.2 276.703C1861.2 279.982 1863.33 283.84 1866.19 285.671C1869.05 287.509 1871.17 286.374 1871.17 283.095C1871.17 279.828 1869.05 275.965 1866.19 274.127C1863.33 272.295 1861.2 273.436 1861.2 276.703ZM1863.68 278.292C1863.68 276.525 1864.73 275.882 1866.19 276.817C1867.66 277.758 1868.7 279.74 1868.7 281.507C1868.7 283.285 1867.66 283.934 1866.19 282.993C1864.73 282.059 1863.68 280.07 1863.68 278.292Z" fill="#1A64D8"/>
<path d="M1875.41 280.271L1873 278.725V289.808L1875.5 291.409V285.729C1875.5 283.444 1876.66 283.481 1877.75 284.185C1878.25 284.503 1878.66 284.914 1878.91 285.18L1879.1 282.661C1878.91 282.456 1878.44 281.984 1877.89 281.628C1876.84 280.956 1875.94 280.965 1875.46 281.814L1875.41 280.271Z" fill="#1A64D8"/>
<path d="M1884.83 294.378L1882.39 284.744L1879.63 282.975L1883.49 296.542C1883.2 297.752 1882.46 298.145 1881.42 297.478C1881 297.21 1880.56 296.803 1880.24 296.436L1879.93 298.614C1880.34 299.118 1880.96 299.76 1881.71 300.239C1883.71 301.523 1884.86 301.046 1885.61 299.401L1890.01 289.629L1887.24 287.853L1884.83 294.378Z" fill="#1A64D8"/>
</g>
<g id="History GE">
<path d="M1821.97 257.515C1821.6 256.11 1821.33 254.837 1821.18 253.694C1821.03 252.56 1820.96 251.363 1820.96 250.102C1820.96 247.99 1821.3 246.635 1821.99 246.037C1822.68 245.423 1823.61 245.49 1824.78 246.239C1825.93 246.979 1826.85 248.098 1827.54 249.597C1828.25 251.088 1828.6 252.89 1828.6 255.002C1828.6 256.247 1828.52 257.354 1828.36 258.324C1828.2 259.278 1827.94 260.208 1827.58 261.113L1825.51 259.786C1825.78 258.979 1825.99 258.062 1826.13 257.037C1826.28 255.996 1826.35 254.852 1826.35 253.607C1826.35 252.094 1826.2 250.936 1825.91 250.135C1825.63 249.341 1825.26 248.791 1824.78 248.485C1824.33 248.196 1823.95 248.253 1823.64 248.656C1823.35 249.068 1823.21 250.046 1823.21 251.591C1823.21 252.868 1823.28 254.112 1823.42 255.325C1823.57 256.522 1823.78 257.694 1824.04 258.842L1821.97 257.515Z" fill="#1A64D8"/>
<path d="M1834.39 265.71C1833.15 264.919 1832.2 263.799 1831.54 262.349C1830.89 260.908 1830.57 259.178 1830.57 257.161V245.055L1832.77 246.472V258.624C1832.77 259.854 1832.91 260.884 1833.17 261.717C1833.44 262.533 1833.86 263.124 1834.43 263.49C1835 263.856 1835.41 263.804 1835.66 263.335C1835.91 262.866 1836.04 262.143 1836.04 261.166C1836.04 260.52 1835.99 259.918 1835.88 259.362C1835.79 258.813 1835.65 258.271 1835.48 257.735C1835.24 256.952 1835.03 256.177 1834.84 255.412C1834.67 254.655 1834.59 253.772 1834.59 252.763L1836.8 254.18C1836.8 254.952 1836.88 255.665 1837.03 256.319C1837.19 256.973 1837.39 257.632 1837.61 258.297C1837.84 258.993 1838 259.682 1838.11 260.365C1838.23 261.056 1838.29 261.804 1838.29 262.608C1838.29 263.664 1838.14 264.52 1837.83 265.175C1837.54 265.839 1837.1 266.228 1836.52 266.343C1835.95 266.466 1835.24 266.255 1834.39 265.71Z" fill="#1A64D8"/>
<path d="M1845.12 278.266C1843.34 277.126 1842.04 275.437 1841.2 273.199C1840.38 270.969 1839.97 268.278 1839.97 265.126C1839.97 262.446 1840.3 260.575 1840.98 259.511C1841.66 258.432 1842.71 258.205 1844.13 258.832C1844.11 258.524 1844.09 258.22 1844.07 257.919C1844.04 257.618 1844.03 257.302 1844.03 256.971V255.884L1846.18 257.262V258.326C1846.18 258.657 1846.16 258.956 1846.14 259.222C1846.12 259.497 1846.1 259.784 1846.08 260.082C1847.56 261.303 1848.62 262.906 1849.26 264.89C1849.91 266.883 1850.24 269.164 1850.24 271.734C1850.24 274.902 1849.83 277.07 1849.02 278.237C1848.23 279.414 1846.93 279.423 1845.12 278.266ZM1845.12 275.973C1846.1 276.602 1846.83 276.475 1847.29 275.591C1847.76 274.722 1847.99 272.956 1847.99 270.292C1847.99 268.227 1847.84 266.553 1847.53 265.27C1847.22 263.986 1846.73 262.998 1846.04 262.303C1846.09 262.684 1846.12 263.068 1846.14 263.454C1846.16 263.85 1846.18 264.221 1846.18 264.568V268.894L1844.03 267.516V263.189C1844.03 262.843 1844.04 262.497 1844.07 262.151C1844.09 261.79 1844.12 261.444 1844.15 261.114C1843.47 260.933 1842.98 261.288 1842.67 262.18C1842.38 263.08 1842.24 264.555 1842.24 266.604C1842.24 269.221 1842.47 271.281 1842.95 272.785C1843.43 274.289 1844.15 275.352 1845.12 275.973Z" fill="#1A64D8"/>
<path d="M1852.96 277.378C1852.57 275.933 1852.3 274.656 1852.14 273.545C1851.98 272.434 1851.9 271.287 1851.9 270.105C1851.9 268.056 1852.18 266.643 1852.74 265.865C1853.29 265.088 1854.09 265.031 1855.13 265.694C1855.72 266.077 1856.21 266.592 1856.58 267.24C1856.96 267.881 1857.24 268.627 1857.41 269.479L1857.47 269.517C1857.65 268.887 1857.92 268.494 1858.29 268.338C1858.68 268.175 1859.16 268.28 1859.74 268.654C1860.77 269.309 1861.56 270.387 1862.13 271.888C1862.7 273.373 1862.99 275.148 1862.99 277.213C1862.99 278.363 1862.91 279.416 1862.75 280.37C1862.59 281.323 1862.32 282.245 1861.93 283.133L1859.82 281.78C1860.14 280.976 1860.37 280.061 1860.52 279.035C1860.68 278.002 1860.76 276.926 1860.76 275.807C1860.76 274.42 1860.66 273.324 1860.46 272.518C1860.27 271.722 1859.96 271.183 1859.52 270.902C1859.14 270.655 1858.87 270.737 1858.73 271.148C1858.58 271.543 1858.51 272.348 1858.51 273.561V276.777L1856.38 275.412V272.196C1856.38 271.014 1856.3 270.12 1856.14 269.513C1855.99 268.899 1855.74 268.478 1855.38 268.248C1854.92 267.95 1854.59 268.081 1854.41 268.639C1854.24 269.191 1854.15 270.184 1854.15 271.618C1854.15 273.998 1854.46 276.369 1855.07 278.731L1852.96 277.378Z" fill="#1A64D8"/>
<path d="M1865.71 285.552C1865.32 284.108 1865.05 282.799 1864.89 281.625C1864.73 280.451 1864.65 279.241 1864.65 277.996V276.719C1864.65 275.253 1864.75 273.969 1864.95 272.868C1865.16 271.774 1865.54 270.969 1866.09 270.45C1866.64 269.925 1867.44 269.789 1868.47 270.043C1868.89 270.133 1869.41 270.312 1870.05 270.578C1870.7 270.837 1871.49 271.198 1872.44 271.66L1872.71 274.108C1872.28 273.891 1871.81 273.672 1871.32 273.452C1870.83 273.231 1870.37 273.04 1869.95 272.879C1869.52 272.717 1869.18 272.602 1868.93 272.535C1868.31 272.403 1867.81 272.447 1867.44 272.666C1867.08 272.893 1866.81 273.381 1866.62 274.129L1866.66 274.154C1866.88 273.943 1867.11 273.856 1867.36 273.891C1867.62 273.935 1867.88 274.038 1868.14 274.2C1868.6 274.498 1869 274.962 1869.35 275.593C1869.71 276.217 1869.96 276.954 1870.11 277.804L1870.17 277.842C1870.51 276.503 1871.28 276.216 1872.47 276.982C1873.48 277.628 1874.26 278.685 1874.8 280.153C1875.36 281.63 1875.64 283.377 1875.64 285.394C1875.64 286.561 1875.55 287.601 1875.38 288.515C1875.22 289.437 1874.95 290.342 1874.56 291.231L1872.45 289.878C1872.77 289.073 1873.01 288.166 1873.15 287.156C1873.31 286.155 1873.39 285.103 1873.39 284C1873.39 282.597 1873.3 281.497 1873.11 280.7C1872.94 279.896 1872.63 279.353 1872.2 279.073C1871.84 278.843 1871.58 278.929 1871.42 279.332C1871.27 279.742 1871.2 280.515 1871.2 281.65V284.866L1869.05 283.488V280.272C1869.05 279.153 1868.98 278.294 1868.83 277.696C1868.69 277.083 1868.44 276.665 1868.1 276.444C1867.64 276.155 1867.33 276.294 1867.16 276.861C1866.99 277.428 1866.9 278.437 1866.9 279.887C1866.9 282.204 1867.21 284.543 1867.82 286.905L1865.71 285.552Z" fill="#1A64D8"/>
<path d="M1878.32 293.639C1877.95 292.234 1877.68 290.961 1877.53 289.819C1877.38 288.685 1877.31 287.487 1877.31 286.226C1877.31 284.114 1877.65 282.759 1878.34 282.161C1879.03 281.547 1879.96 281.615 1881.13 282.363C1882.28 283.103 1883.2 284.223 1883.89 285.721C1884.6 287.212 1884.95 289.014 1884.95 291.126C1884.95 292.371 1884.87 293.479 1884.71 294.449C1884.55 295.403 1884.29 296.332 1883.93 297.237L1881.86 295.91C1882.13 295.103 1882.34 294.187 1882.48 293.161C1882.63 292.12 1882.7 290.977 1882.7 289.731C1882.7 288.218 1882.55 287.061 1882.26 286.259C1881.98 285.466 1881.61 284.916 1881.13 284.61C1880.68 284.32 1880.3 284.377 1879.99 284.781C1879.7 285.192 1879.56 286.171 1879.56 287.715C1879.56 288.992 1879.63 290.237 1879.77 291.45C1879.92 292.646 1880.13 293.819 1880.39 294.966L1878.32 293.639Z" fill="#1A64D8"/>
<path d="M1890.18 301.477C1889.11 300.788 1888.22 299.844 1887.53 298.646C1886.86 297.455 1886.52 296.182 1886.52 294.827C1886.52 294.354 1886.54 293.961 1886.6 293.648C1886.66 293.328 1886.75 292.989 1886.86 292.632L1888.91 293.946C1888.84 294.25 1888.79 294.555 1888.75 294.861C1888.72 295.175 1888.71 295.529 1888.71 295.923C1888.71 296.648 1888.83 297.3 1889.07 297.878C1889.3 298.457 1889.66 298.9 1890.14 299.206C1890.6 299.504 1890.96 299.544 1891.22 299.327C1891.47 299.095 1891.59 298.608 1891.59 297.868C1891.59 297.079 1891.49 296.342 1891.27 295.654C1891.06 294.966 1890.82 294.281 1890.54 293.598C1890.31 293.043 1890.09 292.469 1889.88 291.876C1889.67 291.267 1889.49 290.624 1889.34 289.947C1889.21 289.279 1889.15 288.543 1889.15 287.739L1891.37 289.168C1891.37 289.972 1891.48 290.742 1891.69 291.477C1891.91 292.212 1892.15 292.937 1892.43 293.651C1892.77 294.519 1893.09 295.424 1893.38 296.368C1893.69 297.304 1893.84 298.301 1893.84 299.357C1893.84 300.318 1893.68 301.024 1893.34 301.473C1893.03 301.931 1892.59 302.155 1892.03 302.144C1891.47 302.133 1890.86 301.911 1890.18 301.477Z" fill="#1A64D8"/>
</g>
<g id="Academy EN">
<path d="M1071.31 394.088L1074.1 392.768L1068.78 380.727L1065.78 382.148L1060.47 399.219L1063.26 397.898L1064.24 394.584L1070.34 391.695L1071.31 394.088ZM1067.29 384.456L1069.59 389.748L1064.98 391.93L1067.29 384.456Z" fill="#1A64D8"/>
<path d="M1074.74 387.309C1074.74 390.493 1076.92 391.648 1079.99 390.199C1081.12 389.663 1082.02 388.958 1083 388.012L1082.71 385.706C1081.9 386.504 1081.09 387.147 1080.15 387.591C1078.46 388.389 1077.23 387.878 1077.23 386.12C1077.23 384.265 1078.53 382.686 1080.23 381.884C1081.15 381.448 1082 381.281 1082.67 381.286L1082.88 378.794C1082.09 378.774 1081.1 378.952 1079.96 379.493C1076.95 380.914 1074.74 383.964 1074.74 387.309Z" fill="#1A64D8"/>
<path d="M1088.54 386.151C1089.99 385.468 1090.97 384.405 1091.58 383.258L1091.62 384.479L1094.06 383.328V373.037L1091.62 374.187L1091.58 375.454C1090.97 374.896 1089.99 374.748 1088.54 375.431C1085.98 376.641 1084.06 379.773 1084.06 382.892C1084.06 386.012 1085.98 387.361 1088.54 386.151ZM1091.57 379.339C1091.57 380.99 1090.51 382.776 1089.03 383.478C1087.53 384.184 1086.53 383.374 1086.53 381.723C1086.53 380.083 1087.53 378.363 1089.03 377.657C1090.51 376.955 1091.57 377.699 1091.57 379.339Z" fill="#1A64D8"/>
<path d="M1100.4 380.539C1101.77 379.893 1102.81 378.888 1103.43 377.801L1103.48 378.872L1105.92 377.716V362.611L1103.48 363.767V369.824C1102.86 369.26 1101.9 369.113 1100.4 369.819C1097.77 371.066 1095.9 374.17 1095.9 377.3C1095.9 380.409 1097.77 381.786 1100.4 380.539ZM1103.45 373.718C1103.45 375.348 1102.38 377.138 1100.92 377.831C1099.43 378.532 1098.4 377.736 1098.4 376.107C1098.4 374.445 1099.43 372.743 1100.92 372.042C1102.38 371.349 1103.45 372.078 1103.45 373.718Z" fill="#1A64D8"/>
<path d="M1116.32 369.817C1115.39 370.735 1114.32 371.544 1113.17 372.089C1111.63 372.814 1110.47 372.678 1110.22 371.36L1116.95 368.179C1117.56 364.084 1115.38 362.731 1112.53 364.084C1109.76 365.39 1107.75 368.552 1107.75 371.704C1107.75 374.909 1109.86 376.065 1113.16 374.506C1114.51 373.864 1115.76 372.876 1116.66 371.881L1116.32 369.817ZM1110.26 369.498C1110.37 368.279 1111.26 367 1112.58 366.372C1113.86 365.767 1114.65 366.274 1114.72 367.389L1110.26 369.498Z" fill="#1A64D8"/>
<path d="M1124.15 358.587C1122.78 359.233 1121.77 360.396 1121.3 361.339L1121.25 360.172L1118.88 361.29V371.582L1121.37 370.404V364.647C1121.37 363.221 1122.33 361.995 1123.41 361.486C1124.46 360.991 1125.26 361.383 1125.26 362.808V368.565L1127.75 367.387V361.566C1127.75 360.172 1128.73 358.969 1129.79 358.465C1130.86 357.961 1131.66 358.357 1131.66 359.782V365.539L1134.15 364.361V357.897C1134.15 355.388 1132.62 354.575 1130.49 355.584C1129.11 356.239 1127.92 357.528 1127.27 358.933C1126.72 358.021 1125.56 357.917 1124.15 358.587Z" fill="#1A64D8"/>
<path d="M1140.37 358.62L1137.93 352.277L1135.18 353.579L1139.03 362.061C1138.74 363.496 1138 364.648 1136.97 365.139C1136.55 365.336 1136.11 365.424 1135.79 365.425L1135.48 367.781C1135.89 367.813 1136.51 367.745 1137.26 367.392C1139.25 366.447 1140.4 364.781 1141.14 362.455L1145.53 348.682L1142.77 349.989L1140.37 358.62Z" fill="#1A64D8"/>
</g>
<g id="Academy GE">
<path d="M1066.28 395.708C1065.11 396.222 1064.15 396.265 1063.4 395.838C1062.66 395.404 1062.3 394.508 1062.3 393.15C1062.3 392.677 1062.33 392.254 1062.39 391.881C1062.46 391.486 1062.56 391.05 1062.67 390.573L1064.91 389.592C1064.83 389.972 1064.77 390.336 1064.73 390.687C1064.7 391.031 1064.68 391.4 1064.68 391.795C1064.68 392.521 1064.81 393.04 1065.07 393.352C1065.33 393.664 1065.72 393.706 1066.24 393.477C1066.75 393.255 1067.14 392.894 1067.41 392.395C1067.69 391.879 1067.83 391.251 1067.83 390.509C1067.83 389.72 1067.71 389.1 1067.48 388.649C1067.25 388.198 1066.99 387.786 1066.69 387.415C1066.44 387.112 1066.2 386.783 1065.97 386.427C1065.74 386.055 1065.55 385.612 1065.39 385.097C1065.25 384.577 1065.18 383.914 1065.18 383.109L1067.61 382.042C1067.6 382.847 1067.72 383.499 1067.95 383.997C1068.18 384.496 1068.45 384.946 1068.75 385.35C1069.12 385.832 1069.47 386.382 1069.78 387C1070.11 387.596 1070.28 388.423 1070.28 389.48C1070.27 390.443 1070.09 391.335 1069.73 392.157C1069.38 392.973 1068.9 393.687 1068.3 394.301C1067.69 394.915 1067.02 395.384 1066.28 395.708Z" fill="#1A64D8"/>
<path d="M1074.88 397.605C1073.97 398.005 1073.22 398.11 1072.61 397.919C1072 397.743 1071.55 397.343 1071.25 396.719C1070.94 396.11 1070.79 395.372 1070.8 394.504C1070.8 393.557 1070.94 392.683 1071.21 391.884L1073.45 390.903C1073.39 391.165 1073.34 391.503 1073.29 391.917C1073.25 392.331 1073.23 392.774 1073.22 393.248C1073.22 394.006 1073.34 394.615 1073.59 395.075C1073.85 395.529 1074.27 395.626 1074.87 395.365C1075.42 395.124 1075.82 394.662 1076.08 393.98C1076.36 393.307 1076.5 392.386 1076.5 391.218C1076.5 389.86 1076.32 388.956 1075.94 388.506C1075.57 388.055 1075.08 387.963 1074.47 388.23L1073.88 388.487L1073.89 386.238L1074.43 386C1075.02 385.739 1075.49 385.292 1075.82 384.656C1076.15 384.005 1076.32 383.316 1076.32 382.59C1076.32 381.864 1076.18 381.352 1075.89 381.052C1075.62 380.747 1075.25 380.695 1074.79 380.899L1074.79 378.649C1075.93 378.148 1076.88 378.111 1077.63 378.538C1078.38 378.95 1078.75 379.827 1078.75 381.169C1078.75 382.147 1078.54 383.076 1078.12 383.955C1077.71 384.811 1077.11 385.54 1076.31 386.142L1076.31 386.237C1077.11 386.14 1077.74 386.39 1078.22 386.985C1078.71 387.559 1078.95 388.642 1078.95 390.237C1078.95 391.973 1078.59 393.494 1077.88 394.8C1077.17 396.105 1076.17 397.04 1074.88 397.605Z" fill="#1A64D8"/>
<path d="M1084.13 387.868C1082.95 388.382 1081.99 388.426 1081.24 387.998C1080.51 387.564 1080.14 386.668 1080.15 385.311C1080.15 384.837 1080.18 384.414 1080.23 384.042C1080.31 383.647 1080.4 383.211 1080.52 382.734L1082.75 381.753C1082.68 382.132 1082.62 382.497 1082.58 382.847C1082.55 383.192 1082.53 383.561 1082.53 383.956C1082.53 384.682 1082.66 385.201 1082.92 385.513C1083.18 385.825 1083.57 385.866 1084.09 385.638C1084.59 385.416 1084.98 385.055 1085.26 384.555C1085.53 384.04 1085.67 383.412 1085.67 382.67C1085.68 381.88 1085.56 381.26 1085.33 380.809C1085.1 380.358 1084.83 379.947 1084.53 379.575C1084.29 379.273 1084.05 378.943 1083.82 378.587C1083.59 378.215 1083.4 377.772 1083.24 377.258C1083.09 376.737 1083.02 376.075 1083.02 375.27L1085.45 374.203C1085.45 375.008 1085.57 375.66 1085.8 376.158C1086.03 376.656 1086.29 377.107 1086.59 377.51C1086.97 377.993 1087.31 378.543 1087.63 379.161C1087.96 379.757 1088.13 380.583 1088.12 381.641C1088.12 382.604 1087.94 383.496 1087.58 384.318C1087.23 385.133 1086.75 385.848 1086.14 386.462C1085.54 387.076 1084.86 387.544 1084.13 387.868Z" fill="#1A64D8"/>
<path d="M1097.8 387.54C1097.44 386.735 1096.96 386.219 1096.37 385.99C1095.78 385.776 1095.15 385.819 1094.47 386.117C1093.7 386.454 1092.96 387.006 1092.25 387.775L1091.56 386.399C1091.81 386.133 1092.1 385.872 1092.43 385.615C1092.78 385.353 1093.14 385.123 1093.52 384.926L1093.52 384.832C1092.38 384.639 1091.5 383.984 1090.88 382.868C1090.26 381.752 1089.95 380.333 1089.95 378.613C1089.96 376.529 1090.27 374.767 1090.9 373.326C1091.52 371.885 1092.39 370.92 1093.5 370.431C1094.12 370.158 1094.68 370.111 1095.17 370.29C1095.66 370.468 1096 370.919 1096.19 371.642L1096.25 371.613C1096.45 370.719 1096.82 369.96 1097.34 369.337C1097.86 368.714 1098.43 368.266 1099.05 367.993C1099.98 367.587 1100.73 367.533 1101.3 367.831C1101.88 368.114 1102.3 368.688 1102.56 369.552C1102.83 370.41 1102.96 371.502 1102.96 372.828C1102.96 373.996 1102.82 375.13 1102.54 376.229C1102.27 377.329 1101.84 378.297 1101.26 379.135C1100.68 379.973 1099.92 380.599 1098.98 381.011C1098 381.443 1097.21 381.497 1096.62 381.173C1096.03 380.849 1095.6 380.263 1095.35 379.414C1095.09 378.566 1094.96 377.573 1094.96 376.437L1094.96 375.229C1094.97 374.077 1094.88 373.297 1094.69 372.891C1094.52 372.477 1094.21 372.369 1093.76 372.566C1093.28 372.775 1092.93 373.275 1092.71 374.065C1092.51 374.848 1092.41 375.99 1092.4 377.489C1092.4 378.957 1092.57 380.092 1092.9 380.893C1093.23 381.694 1093.66 382.269 1094.19 382.618C1094.74 382.961 1095.32 383.186 1095.94 383.291C1096.83 383.425 1097.58 383.668 1098.22 384.02C1098.85 384.388 1099.34 385.009 1099.69 385.882L1097.8 387.54ZM1098.94 378.781C1099.51 378.533 1099.9 377.996 1100.14 377.168C1100.38 376.334 1100.51 375.254 1100.51 373.928C1100.52 372.492 1100.4 371.461 1100.17 370.836C1099.94 370.212 1099.54 370.027 1098.96 370.281C1098.4 370.528 1098 371.066 1097.77 371.893C1097.53 372.721 1097.42 373.845 1097.41 375.266C1097.41 376.624 1097.52 377.615 1097.75 378.239C1097.98 378.848 1098.38 379.028 1098.94 378.781Z" fill="#1A64D8"/>
<path d="M1108.31 382.921C1107.39 383.327 1106.62 383.411 1106.02 383.172C1105.41 382.934 1104.96 382.487 1104.66 381.831C1104.37 381.168 1104.23 380.419 1104.23 379.582C1104.23 378.998 1104.28 378.447 1104.38 377.929C1104.48 377.411 1104.59 376.961 1104.71 376.579L1106.96 375.588C1106.89 375.873 1106.82 376.244 1106.75 376.702C1106.67 377.144 1106.64 377.689 1106.63 378.336C1106.63 378.857 1106.68 379.324 1106.78 379.737C1106.88 380.166 1107.05 380.48 1107.28 380.678C1107.52 380.87 1107.86 380.874 1108.28 380.69C1108.84 380.443 1109.25 379.97 1109.51 379.271C1109.79 378.582 1109.93 377.686 1109.93 376.581L1109.95 367.725C1109.95 366.21 1109.46 365.668 1108.48 366.1C1107.99 366.315 1107.62 366.682 1107.37 367.201C1107.13 367.719 1107 368.326 1107 369.02C1107 369.762 1107.07 370.464 1107.21 371.127L1104.96 372.117C1104.83 371.732 1104.74 371.379 1104.68 371.057C1104.62 370.735 1104.59 370.338 1104.59 369.864C1104.6 368.443 1104.96 367.211 1105.68 366.168C1106.42 365.118 1107.36 364.342 1108.5 363.841C1109.65 363.339 1110.58 363.316 1111.3 363.772C1112.02 364.213 1112.38 365.175 1112.38 366.659L1112.36 375.538C1112.35 377.306 1112 378.835 1111.29 380.124C1110.59 381.423 1109.6 382.356 1108.31 382.921Z" fill="#1A64D8"/>
<path d="M1118.77 372.65C1117.35 373.272 1116.29 373.15 1115.57 372.284C1114.85 371.401 1114.49 369.966 1114.49 367.977C1114.5 365.941 1114.79 364.243 1115.37 362.884C1115.96 361.519 1116.8 360.598 1117.89 360.122C1118.44 359.881 1118.93 359.799 1119.36 359.877C1119.81 359.933 1120.18 360.21 1120.48 360.708L1120.57 360.67C1120.54 360.256 1120.52 359.903 1120.51 359.609C1120.51 359.293 1120.51 359.009 1120.51 358.757L1120.51 357.644C1120.51 356.949 1120.38 356.481 1120.1 356.238C1119.84 355.974 1119.47 355.949 1118.98 356.165C1118.51 356.368 1118.15 356.669 1117.89 357.068C1117.65 357.444 1117.52 357.9 1117.52 358.437C1117.52 358.532 1117.52 358.634 1117.52 358.745C1117.53 358.833 1117.55 358.93 1117.56 359.034L1115.27 360.043C1115.21 359.879 1115.16 359.717 1115.14 359.556C1115.11 359.395 1115.09 359.227 1115.09 359.054C1115.1 358.407 1115.26 357.765 1115.6 357.13C1115.94 356.488 1116.41 355.903 1117.01 355.374C1117.6 354.846 1118.27 354.42 1119 354.096C1120.19 353.575 1121.13 353.53 1121.84 353.961C1122.56 354.386 1122.92 355.3 1122.92 356.705L1122.9 364.33C1122.9 366.508 1122.54 368.297 1121.83 369.697C1121.12 371.082 1120.1 372.066 1118.77 372.65ZM1118.75 370.41C1119.35 370.15 1119.78 369.612 1120.06 368.797C1120.35 367.96 1120.49 366.878 1120.5 365.552L1120.5 364.866C1120.5 363.619 1120.35 362.754 1120.05 362.272C1119.76 361.767 1119.29 361.658 1118.64 361.943C1118.05 362.204 1117.62 362.762 1117.36 363.618C1117.1 364.459 1116.97 365.557 1116.96 366.915C1116.96 368.288 1117.09 369.286 1117.37 369.907C1117.66 370.522 1118.12 370.69 1118.75 370.41Z" fill="#1A64D8"/>
<path d="M1126.15 369.173C1125.75 368.182 1125.46 367.204 1125.29 366.239C1125.13 365.267 1125.05 364.149 1125.06 362.887C1125.06 360.771 1125.44 359.028 1126.19 357.656C1126.95 356.268 1127.96 355.295 1129.23 354.736C1130.49 354.184 1131.49 354.272 1132.24 354.999C1133.01 355.704 1133.38 357.115 1133.38 359.23C1133.38 360.477 1133.29 361.675 1133.11 362.825C1132.94 363.959 1132.65 365.18 1132.26 366.487L1130.01 367.478C1130.3 366.372 1130.52 365.224 1130.69 364.033C1130.85 362.827 1130.93 361.6 1130.93 360.353C1130.93 358.838 1130.78 357.842 1130.46 357.366C1130.16 356.884 1129.75 356.757 1129.23 356.986C1128.74 357.202 1128.32 357.682 1127.99 358.428C1127.67 359.168 1127.51 360.311 1127.51 361.858C1127.5 363.137 1127.58 364.301 1127.74 365.352C1127.89 366.387 1128.12 367.331 1128.4 368.182L1126.15 369.173Z" fill="#1A64D8"/>
<path d="M1139.06 363.736C1137.89 364.251 1136.93 364.294 1136.18 363.866C1135.45 363.432 1135.08 362.537 1135.08 361.179C1135.08 360.706 1135.11 360.282 1135.17 359.91C1135.25 359.515 1135.34 359.079 1135.46 358.602L1137.69 357.621C1137.62 358 1137.56 358.365 1137.51 358.716C1137.48 359.06 1137.47 359.429 1137.47 359.824C1137.47 360.55 1137.6 361.069 1137.85 361.381C1138.11 361.693 1138.5 361.735 1139.02 361.506C1139.53 361.284 1139.92 360.923 1140.2 360.423C1140.47 359.908 1140.61 359.28 1140.61 358.538C1140.61 357.749 1140.5 357.128 1140.27 356.678C1140.04 356.227 1139.77 355.815 1139.47 355.443C1139.22 355.141 1138.99 354.812 1138.76 354.455C1138.53 354.083 1138.33 353.64 1138.17 353.126C1138.03 352.606 1137.96 351.943 1137.96 351.138L1140.39 350.071C1140.39 350.876 1140.5 351.528 1140.73 352.026C1140.96 352.524 1141.23 352.975 1141.53 353.379C1141.91 353.861 1142.25 354.411 1142.57 355.029C1142.9 355.625 1143.06 356.451 1143.06 357.509C1143.06 358.472 1142.88 359.364 1142.51 360.186C1142.17 361.001 1141.69 361.716 1141.08 362.33C1140.47 362.944 1139.8 363.413 1139.06 363.736Z" fill="#1A64D8"/>
</g>
<g id="News EN">
<path d="M1368.86 243.736C1367.37 244.442 1366.3 245.689 1365.77 246.71L1365.72 245.453L1363.17 246.657V257.741L1365.85 256.477V250.277C1365.85 248.742 1366.89 247.417 1368.07 246.859C1369.24 246.306 1370.14 246.712 1370.14 248.248V254.447L1372.82 253.178V246.217C1372.82 243.55 1371.18 242.64 1368.86 243.736Z" fill="#1A64D8"/>
<path d="M1383.93 244.711C1382.94 245.699 1381.78 246.571 1380.54 247.158C1378.89 247.938 1377.64 247.792 1377.37 246.373L1384.61 242.947C1385.27 238.537 1382.93 237.08 1379.85 238.537C1376.88 239.944 1374.71 243.349 1374.71 246.743C1374.71 250.195 1376.98 251.439 1380.53 249.761C1381.99 249.069 1383.34 248.005 1384.31 246.934L1383.93 244.711ZM1377.41 244.368C1377.52 243.055 1378.48 241.677 1379.91 241.001C1381.29 240.349 1382.14 240.896 1382.21 242.096L1377.41 244.368Z" fill="#1A64D8"/>
<path d="M1394.94 231.801L1392.56 232.927L1390.41 241.841L1388.44 234.704L1385.67 236.012L1388.63 245.698L1391.96 244.123L1393.75 236.555L1395.55 242.425L1398.88 240.85L1401.83 228.369L1399.06 229.678L1397.08 238.686L1394.94 231.801Z" fill="#1A64D8"/>
<path d="M1407.03 230.228C1405.83 230.554 1405.39 230.484 1405.39 229.941C1405.39 229.283 1406.02 228.636 1407.34 228.014C1408.3 227.559 1409.64 227.205 1410.37 227.205L1410.6 224.684C1409.7 224.67 1408.46 225.003 1407.2 225.596C1404.54 226.855 1402.81 229.094 1402.81 231.161C1402.81 232.997 1403.75 233.637 1405.68 233.093L1406.88 232.78C1408.05 232.458 1408.48 232.544 1408.48 233.133C1408.48 233.791 1407.92 234.352 1406.62 234.97C1405.6 235.453 1404.24 235.784 1403.25 235.791L1402.97 238.349C1403.87 238.416 1405.33 238.029 1406.83 237.318C1409.4 236.104 1411.06 234.079 1411.06 231.85C1411.06 229.934 1410.07 229.41 1408.09 229.944L1407.03 230.228Z" fill="#1A64D8"/>
</g>
<g id="News GE">
<path d="M1349.52 264.621C1348.38 265.151 1347.51 265.125 1346.9 264.544C1346.3 263.956 1346 262.809 1346 261.103V250.862L1348.03 249.913V260.193C1348.03 261.233 1348.15 261.976 1348.4 262.422C1348.64 262.855 1349.03 262.949 1349.55 262.703C1350.08 262.458 1350.46 262.015 1350.69 261.373C1350.92 260.731 1351.04 259.997 1351.04 259.17C1351.04 258.624 1350.99 258.166 1350.89 257.799C1350.8 257.425 1350.68 257.096 1350.52 256.81C1350.3 256.379 1350.11 255.93 1349.94 255.463C1349.78 254.991 1349.7 254.328 1349.7 253.475L1351.73 252.525C1351.73 253.178 1351.8 253.704 1351.95 254.102C1352.1 254.501 1352.27 254.871 1352.48 255.214C1352.69 255.584 1352.84 256.006 1352.94 256.481C1353.05 256.949 1353.1 257.524 1353.1 258.204C1353.1 259.097 1352.96 259.969 1352.68 260.821C1352.41 261.666 1352.01 262.421 1351.47 263.085C1350.95 263.744 1350.3 264.256 1349.52 264.621Z" fill="#1A64D8"/>
<path d="M1355.58 261.587C1355.24 260.76 1355 259.94 1354.85 259.129C1354.72 258.311 1354.65 257.369 1354.65 256.303C1354.65 254.516 1354.97 253.034 1355.6 251.858C1356.23 250.668 1357.09 249.822 1358.16 249.32C1359.23 248.824 1360.07 248.874 1360.71 249.471C1361.36 250.049 1361.68 251.231 1361.68 253.018C1361.68 254.071 1361.61 255.086 1361.46 256.061C1361.31 257.023 1361.07 258.061 1360.75 259.175L1358.84 260.064C1359.09 259.123 1359.27 258.148 1359.41 257.139C1359.54 256.116 1359.61 255.078 1359.61 254.025C1359.61 252.745 1359.48 251.907 1359.21 251.513C1358.95 251.112 1358.6 251.015 1358.16 251.22C1357.75 251.414 1357.4 251.83 1357.12 252.468C1356.85 253.1 1356.72 254.069 1356.72 255.376C1356.72 256.456 1356.78 257.438 1356.92 258.322C1357.05 259.193 1357.24 259.984 1357.49 260.697L1355.58 261.587Z" fill="#1A64D8"/>
<path d="M1366.49 256.691C1365.5 257.152 1364.69 257.212 1364.06 256.868C1363.43 256.519 1363.12 255.771 1363.12 254.624C1363.12 254.224 1363.15 253.866 1363.19 253.55C1363.26 253.215 1363.34 252.844 1363.43 252.439L1365.32 251.558C1365.26 251.88 1365.21 252.189 1365.17 252.486C1365.15 252.778 1365.14 253.09 1365.14 253.423C1365.14 254.037 1365.25 254.472 1365.47 254.729C1365.68 254.987 1366.01 255.013 1366.45 254.808C1366.88 254.608 1367.21 254.294 1367.44 253.866C1367.67 253.424 1367.79 252.89 1367.79 252.263C1367.79 251.596 1367.69 251.075 1367.5 250.7C1367.3 250.324 1367.08 249.983 1366.82 249.676C1366.61 249.427 1366.41 249.154 1366.22 248.859C1366.02 248.55 1365.86 248.18 1365.72 247.749C1365.6 247.313 1365.54 246.755 1365.54 246.075L1367.59 245.117C1367.59 245.797 1367.69 246.345 1367.88 246.76C1368.08 247.176 1368.3 247.55 1368.56 247.884C1368.88 248.282 1369.17 248.739 1369.44 249.253C1369.72 249.749 1369.86 250.443 1369.86 251.337C1369.86 252.15 1369.71 252.908 1369.4 253.61C1369.11 254.307 1368.71 254.922 1368.19 255.455C1367.68 255.988 1367.11 256.4 1366.49 256.691Z" fill="#1A64D8"/>
<path d="M1375.05 252.693C1373.94 253.211 1373.08 253.153 1372.47 252.519C1371.87 251.878 1371.57 250.618 1371.57 248.737V238.917L1373.6 237.968V241.988C1373.6 242.374 1373.58 242.956 1373.55 243.733L1373.62 243.699C1374.13 242.393 1374.87 241.518 1375.82 241.073C1376.73 240.645 1377.44 240.817 1377.92 241.589C1378.42 242.342 1378.67 243.612 1378.67 245.399C1378.67 247.105 1378.36 248.611 1377.74 249.915C1377.13 251.214 1376.23 252.139 1375.05 252.693ZM1375.07 250.784C1375.62 250.527 1376.01 250.031 1376.24 249.296C1376.48 248.542 1376.61 247.572 1376.61 246.385C1376.61 245.172 1376.49 244.299 1376.26 243.768C1376.03 243.236 1375.67 243.084 1375.18 243.312C1374.63 243.569 1374.22 244.037 1373.97 244.717C1373.72 245.391 1373.6 246.321 1373.6 247.508V247.928C1373.6 250.288 1374.09 251.24 1375.07 250.784Z" fill="#1A64D8"/>
<path d="M1388.46 251.229C1388.26 250.773 1387.98 250.434 1387.6 250.211C1387.22 250.001 1386.8 249.898 1386.33 249.901C1385.88 249.912 1385.42 250.026 1384.96 250.242C1384.51 250.453 1384.08 250.729 1383.66 251.07C1383.26 251.405 1382.91 251.74 1382.62 252.077L1381.98 250.957C1382.2 250.681 1382.48 250.393 1382.84 250.095C1383.19 249.796 1383.51 249.565 1383.81 249.401V249.321C1382.74 249.311 1381.88 248.869 1381.21 247.996C1380.55 247.117 1380.22 245.811 1380.22 244.077C1380.22 242.557 1380.46 241.226 1380.93 240.084C1381.42 238.922 1382.11 238.133 1383 237.717C1383.55 237.46 1384 237.423 1384.36 237.604C1384.72 237.766 1384.98 238.124 1385.14 238.676L1385.2 238.651C1385.32 237.967 1385.54 237.384 1385.86 236.903C1386.19 236.402 1386.59 236.041 1387.07 235.818C1387.53 235.601 1387.92 235.592 1388.24 235.791C1388.56 235.976 1388.78 236.35 1388.92 236.914L1388.99 236.88C1389.14 236.185 1389.39 235.588 1389.74 235.089C1390.11 234.572 1390.57 234.182 1391.13 233.919C1392.01 233.509 1392.69 233.672 1393.16 234.41C1393.65 235.142 1393.9 236.374 1393.9 238.108C1393.9 238.948 1393.83 239.773 1393.69 240.582C1393.56 241.391 1393.33 242.287 1393 243.267L1391.19 243.554C1391.43 242.76 1391.59 242.003 1391.68 241.283C1391.78 240.557 1391.83 239.828 1391.83 239.094C1391.83 237.854 1391.75 236.985 1391.59 236.485C1391.44 235.967 1391.19 235.794 1390.82 235.965C1390.5 236.113 1390.28 236.438 1390.14 236.941C1390.01 237.444 1389.94 238.189 1389.94 239.175V242.036L1387.96 242.959V240.099C1387.96 239.112 1387.89 238.433 1387.74 238.062C1387.61 237.684 1387.38 237.57 1387.07 237.718C1386.74 237.872 1386.5 238.203 1386.35 238.712C1386.22 239.215 1386.15 239.959 1386.15 240.946V243.806L1384.17 244.73V241.87C1384.17 240.883 1384.11 240.201 1383.97 239.824C1383.84 239.447 1383.61 239.332 1383.29 239.48C1382.93 239.651 1382.67 240.047 1382.51 240.668C1382.36 241.283 1382.29 242.124 1382.29 243.191C1382.29 244.551 1382.46 245.578 1382.8 246.272C1383.15 246.96 1383.62 247.413 1384.21 247.633C1384.8 247.853 1385.44 247.944 1386.15 247.906C1386.71 247.884 1387.26 247.924 1387.78 248.025C1388.3 248.14 1388.77 248.337 1389.17 248.615C1389.59 248.901 1389.89 249.285 1390.09 249.767L1388.46 251.229Z" fill="#1A64D8"/>
<path d="M1398.45 246.563C1397.66 246.927 1397.02 247.016 1396.51 246.829C1395.99 246.642 1395.61 246.275 1395.35 245.728C1395.11 245.175 1394.99 244.546 1394.99 243.839C1394.99 243.346 1395.03 242.879 1395.11 242.439C1395.2 241.999 1395.29 241.616 1395.39 241.291L1397.29 240.401C1397.23 240.643 1397.17 240.958 1397.11 241.347C1397.05 241.722 1397.02 242.183 1397.02 242.729C1397.02 243.17 1397.06 243.563 1397.15 243.91C1397.23 244.27 1397.37 244.531 1397.57 244.693C1397.77 244.849 1398.06 244.845 1398.41 244.68C1398.89 244.457 1399.23 244.048 1399.45 243.452C1399.69 242.864 1399.8 242.103 1399.8 241.169V233.689C1399.8 232.409 1399.39 231.963 1398.56 232.351C1398.14 232.544 1397.83 232.863 1397.62 233.307C1397.41 233.75 1397.31 234.266 1397.31 234.852C1397.31 235.479 1397.37 236.07 1397.49 236.627L1395.59 237.516C1395.48 237.194 1395.4 236.898 1395.35 236.628C1395.3 236.357 1395.28 236.022 1395.28 235.622C1395.28 234.422 1395.58 233.372 1396.19 232.474C1396.82 231.57 1397.61 230.892 1398.57 230.442C1399.54 229.991 1400.33 229.95 1400.94 230.318C1401.55 230.673 1401.85 231.478 1401.85 232.731V240.231C1401.85 241.725 1401.55 243.024 1400.95 244.131C1400.37 245.244 1399.53 246.055 1398.45 246.563Z" fill="#1A64D8"/>
<path d="M1407.01 242.561C1406.23 242.926 1405.58 243.015 1405.07 242.828C1404.56 242.641 1404.17 242.274 1403.92 241.727C1403.67 241.174 1403.55 240.544 1403.55 239.838C1403.55 239.344 1403.59 238.878 1403.68 238.438C1403.76 237.998 1403.86 237.615 1403.95 237.289L1405.86 236.4C1405.8 236.642 1405.74 236.957 1405.67 237.345C1405.61 237.721 1405.58 238.182 1405.58 238.728C1405.58 239.168 1405.63 239.562 1405.71 239.908C1405.8 240.269 1405.94 240.53 1406.13 240.692C1406.34 240.848 1406.62 240.844 1406.97 240.678C1407.45 240.456 1407.8 240.047 1408.02 239.451C1408.25 238.862 1408.37 238.101 1408.37 237.168V229.688C1408.37 228.408 1407.95 227.962 1407.12 228.349C1406.71 228.543 1406.39 228.862 1406.19 229.306C1405.98 229.749 1405.88 230.264 1405.88 230.851C1405.88 231.478 1405.94 232.069 1406.06 232.626L1404.15 233.515C1404.04 233.193 1403.97 232.897 1403.92 232.626C1403.87 232.356 1403.84 232.021 1403.84 231.621C1403.84 230.42 1404.15 229.371 1404.76 228.473C1405.38 227.569 1406.18 226.891 1407.14 226.441C1408.1 225.99 1408.89 225.949 1409.5 226.317C1410.11 226.672 1410.42 227.476 1410.42 228.73V236.23C1410.42 237.723 1410.12 239.023 1409.52 240.129C1408.93 241.243 1408.1 242.054 1407.01 242.561Z" fill="#1A64D8"/>
<path d="M1416.97 222.049C1417.75 221.964 1418.35 222.282 1418.78 223.003C1419.22 223.704 1419.44 224.808 1419.44 226.315C1419.44 227.355 1419.32 228.359 1419.07 229.326C1418.83 230.293 1418.44 231.156 1417.9 231.913C1417.36 232.671 1416.66 233.252 1415.8 233.657C1414.99 234.034 1414.32 234.101 1413.78 233.858C1413.26 233.597 1412.86 233.109 1412.59 232.394C1412.34 231.66 1412.21 230.76 1412.21 229.693C1412.21 228.173 1412.43 226.821 1412.88 225.637C1413.34 224.439 1414.06 223.503 1415.05 222.827C1415.14 222.542 1415.19 222.246 1415.19 221.939C1415.19 221.672 1415.14 221.462 1415.05 221.307C1414.95 221.153 1414.83 221.02 1414.7 220.91C1414.53 220.763 1414.36 220.573 1414.2 220.341C1414.06 220.102 1413.98 219.69 1413.98 219.103L1416.02 218.154C1416.02 218.501 1416.07 218.755 1416.18 218.917C1416.29 219.079 1416.43 219.227 1416.6 219.36C1416.77 219.494 1416.92 219.665 1417.04 219.875C1417.18 220.066 1417.24 220.354 1417.24 220.741C1417.24 221.194 1417.15 221.63 1416.97 222.049ZM1415.83 231.74C1416.37 231.489 1416.76 231 1417 230.273C1417.25 229.532 1417.37 228.535 1417.37 227.281C1417.37 226.041 1417.25 225.172 1417 224.672C1416.76 224.16 1416.37 224.029 1415.83 224.28C1415.3 224.531 1414.9 225.02 1414.66 225.747C1414.42 226.475 1414.29 227.472 1414.29 228.738C1414.29 229.952 1414.42 230.821 1414.66 231.347C1414.9 231.86 1415.3 231.991 1415.83 231.74Z" fill="#1A64D8"/>
<path d="M1421.9 230.604C1421.56 229.777 1421.32 228.958 1421.17 228.146C1421.04 227.329 1420.97 226.387 1420.97 225.32C1420.97 223.534 1421.29 222.052 1421.92 220.875C1422.56 219.685 1423.41 218.84 1424.48 218.338C1425.55 217.842 1426.39 217.892 1427.03 218.489C1427.68 219.067 1428 220.249 1428 222.036C1428 223.089 1427.93 224.103 1427.78 225.079C1427.63 226.04 1427.4 227.078 1427.07 228.192L1425.16 229.082C1425.41 228.141 1425.6 227.166 1425.73 226.157C1425.86 225.134 1425.93 224.096 1425.93 223.042C1425.93 221.762 1425.8 220.925 1425.53 220.53C1425.27 220.13 1424.92 220.033 1424.48 220.238C1424.07 220.432 1423.72 220.848 1423.44 221.485C1423.17 222.118 1423.04 223.087 1423.04 224.394C1423.04 225.474 1423.11 226.456 1423.24 227.34C1423.37 228.21 1423.56 229.002 1423.81 229.715L1421.9 230.604Z" fill="#1A64D8"/>
</g>
</g>
</svg>
