<svg id="Layer_1" data-name="Layer 1" xmlns="http://www.w3.org/2000/svg" viewBox="0 0 269.12 269.12">
  <defs>
    <style>
      .cls-1 {
      fill: #f3f1ea;
      }

      .cls-2 {
      fill: #eb5d2d;
      }

      .cls-3 {
      fill: #3366b1;
      }

      .cls-4 {
      fill: #1f3141;
      }
    </style>
  </defs>
  <circle class="cls-4" cx="134.56" cy="134.56" r="134.56"/>
  <path class="cls-3" d="M256.77,124.37c0-2.08-1.71-3.79-3.79-3.79h-7.72c-2.08,0-3.79,1.71-3.79,3.79v5.21c0,.12,.05,.23,.13,.31l1.58,1.58c.17,.17,.17,.45,0,.62l-1.58,1.58c-.08,.08-.13,.2-.13,.31v5.66c0,2.08,1.71,3.79,3.79,3.79h7.72c2.08,0,3.79-1.71,3.79-3.79v-5.66c0-.12-.05-.23-.13-.31l-1.58-1.58c-.17-.17-.17-.45,0-.62l1.58-1.58c.08-.08,.13-.2,.13-.31v-5.21Zm-2.36,15.21c0,.85-.7,1.55-1.55,1.55h-7.49c-.85,0-1.55-.7-1.55-1.55v-4.72c0-.12,.05-.24,.14-.33l1.34-1.23c.08-.07,.19-.12,.3-.12h7.01c.11,0,.22,.04,.3,.12l1.34,1.23c.09,.08,.14,.2,.14,.33v4.72Zm0-15.14v4.72c0,.12-.05,.24-.14,.33l-1.34,1.23c-.08,.07-.19,.12-.3,.12h-7.01c-.11,0-.22-.04-.3-.12l-1.34-1.23c-.09-.08-.14-.2-.14-.33v-4.72c0-.85,.7-1.55,1.55-1.55h7.49c.85,0,1.55,.7,1.55,1.55Z"/>
  <path class="cls-3" d="M238.27,124.37c0-2.08-1.71-3.79-3.79-3.79h-7.72c-2.08,0-3.79,1.71-3.79,3.79v3.01c0,.24,.2,.44,.44,.44h1.48c.24,0,.44-.2,.44-.44v-2.94c0-.85,.7-1.55,1.55-1.55h7.49c.85,0,1.55,.7,1.55,1.55v4.72c0,.12-.05,.24-.14,.33l-1.34,1.23c-.08,.07-.19,.12-.3,.12h-4.98c-.24,0-.44,.2-.44,.44v1.48c0,.24,.2,.44,.44,.44h4.98c.11,0,.22,.04,.3,.12l1.34,1.23c.09,.08,.14,.2,.14,.33v4.72c0,.85-.7,1.55-1.55,1.55h-7.49c-.85,0-1.55-.7-1.55-1.55v-3.23c0-.24-.2-.44-.44-.44h-1.48c-.24,0-.44,.2-.44,.44v3.3c0,2.08,1.71,3.79,3.79,3.79h7.72c2.08,0,3.79-1.71,3.79-3.79v-5.66c0-.12-.05-.23-.13-.31l-1.58-1.58c-.17-.17-.17-.45,0-.62l1.58-1.58c.08-.08,.13-.2,.13-.31v-5.21Z"/>
  <path class="cls-3" d="M12.79,120.58h3.9c.24,0,.44,.2,.44,.44v21.98c0,.24-.2,.44-.44,.44h-1.48c-.24,0-.44-.2-.44-.44v-19.54c0-.24-.2-.44-.44-.44h-1.54c-.24,0-.44-.2-.44-.44v-1.55c0-.24,.2-.44,.44-.44Z"/>
  <path class="cls-3" d="M36.16,120.58h-7.73c-2.09,0-3.8,1.71-3.8,3.8v6.34c0,2.1,1.7,3.8,3.8,3.8h8.72c.24,0,.44,.2,.44,.44v4.66c0,.85-.7,1.55-1.55,1.55h-10.64c-.34,0-.56,.37-.38,.67l.86,1.44c.08,.13,.22,.22,.38,.22h9.9c2.09,0,3.8-1.71,3.8-3.8v-15.31c0-2.09-1.71-3.8-3.8-3.8Zm.99,11.57h-8.61c-.86,0-1.55-.69-1.55-1.55v-6.15c0-.85,.7-1.55,1.55-1.55h7.5c.85,0,1.55,.7,1.55,1.55v7.25c0,.24-.2,.44-.44,.44Z"/>
  <g>
    <path class="cls-3" d="M194.31,134.69c-1.31,22.81-20.46,40.5-43.3,40.5H75.84c-.2,0-.33-.2-.25-.38l9.45-21.35c.04-.1,.14-.16,.25-.16h65.82c11.42,0,20.98-8.97,21.36-20.38,.4-11.98-9.19-21.83-21.09-21.83h-47.41c-.11,0-.21-.06-.25-.16l-9.42-21.35c-.08-.18,.05-.38,.25-.38h56.42c24.64,0,44.77,20.54,43.34,45.5Z"/>
    <path class="cls-3" d="M165.83,132.19c0,4.29-1.86,8.15-4.83,10.81-.45,.38-.9,.74-1.35,1.07-7.06,5.24-15.01,5.43-24.77,2.19-2.3-.76-4.55-1.69-6.74-2.73-22.31-10.11-36.08,.39-39.78,3.84-.22,.2-.56-.04-.44-.31,11.4-25.94,28.12-29.97,47.47-22.18,9.76,4.09,19.82,6.71,28.51,.75,.14-.09,.33-.05,.4,.1,.97,1.94,1.51,4.14,1.51,6.46Z"/>
  </g>
  <g>
    <g>
      <path class="cls-1" d="M26.59,83.89c.59-1.38,1.42-2.27,2.48-2.7,1.06-.42,2.28-.34,3.65,.26l13.65,5.89c1.38,.59,2.27,1.42,2.7,2.48,.42,1.06,.34,2.28-.26,3.65l-4.5,10.44c-.09,.2-.31,.29-.51,.2l-19.41-8.37c-.05-.02-.11-.03-.17-.03l-2.77,.08,5.13-11.91Zm16.86,8.39l-12.3-5.3c-.2-.09-.43,0-.51,.2l-1.68,3.89c-.09,.2,0,.43,.2,.51l12.3,5.3c.2,.09,.43,0,.51-.2l1.68-3.89c.09-.2,0-.43-.2-.51Z"/>
      <path class="cls-1" d="M36.35,67.58l19.7,12.68c.18,.12,.23,.36,.12,.54l-2.67,4.14c-.12,.18-.36,.23-.54,.12l-17.77-11.44s-.1-.05-.16-.06l-2.75-.37,3.53-5.49c.12-.18,.36-.23,.54-.12Z"/>
      <path class="cls-1" d="M49.38,51.02l3.34-3.62c.15-.16,.39-.17,.55-.02l17.22,15.88c.16,.15,.17,.39,.02,.55l-3.2,3.48c-.1,.11-.25,.15-.4,.11l-13.19-3.84,8.92,8.22c.16,.15,.17,.39,.02,.55l-3.34,3.62c-.15,.16-.39,.17-.55,.02l-15.54-14.32s-.09-.07-.15-.08l-2.64-.84,4.29-4.65c.1-.11,.25-.15,.4-.11l13.19,3.84-8.92-8.22c-.16-.15-.17-.39-.02-.55Z"/>
      <path class="cls-1" d="M84.08,53.52l-3.17-3.14c-.13-.13-.34-.15-.49-.05l-4.15,2.83c-.15,.11-.21,.31-.14,.48l1.77,4.1c.07,.17,.02,.37-.14,.48l-4.18,2.85c-.21,.14-.5,.05-.58-.19l-7.6-20.23c-.03-.08-.09-.15-.17-.2l-2.34-1.39,7.55-5.14c.15-.1,.35-.09,.48,.03l17.89,16.15c.19,.17,.17,.47-.04,.61l-4.18,2.85c-.15,.11-.36,.09-.49-.05Zm-10.11-4.87l3.09-2.1-6.62-6.58-.17,.12,3.7,8.56Z"/>
      <path class="cls-1" d="M98.7,20.57l4.93-1.83c.2-.07,.43,.03,.5,.23l8.15,21.96c.07,.2-.03,.43-.23,.5l-4.62,1.71c-.2,.07-.43-.03-.5-.23l-4.8-12.93-1.57,10.19c-.05,.3-.41,.44-.64,.24l-7.84-6.69,4.8,12.93c.07,.2-.03,.43-.23,.5l-4.62,1.71c-.2,.07-.43-.03-.5-.23l-7.35-19.82c-.02-.05-.05-.1-.09-.14l-1.98-1.95,6.43-2.39c.13-.05,.29-.02,.39,.07l8.03,7.05,1.49-10.59c.02-.14,.12-.26,.25-.31Z"/>
      <path class="cls-1" d="M121.15,40.37c-1.49,.16-2.68-.11-3.57-.83-.89-.71-1.42-1.82-1.58-3.31l-1.66-15.12c-.16-1.49,.11-2.68,.83-3.57,.71-.89,1.82-1.42,3.31-1.58l7.05-.77c1.49-.16,2.68,.11,3.57,.83,.89,.72,1.42,1.82,1.58,3.31l1.65,15.12c.16,1.49-.11,2.68-.83,3.57-.71,.89-1.82,1.42-3.31,1.58l-7.05,.77Zm.44-5.49c.02,.21,.22,.37,.43,.35l4.21-.46c.21-.02,.37-.22,.35-.43l-1.5-13.66c-.02-.21-.22-.37-.43-.35l-4.21,.46c-.21,.02-.37,.22-.35,.43l1.5,13.66Z"/>
      <path class="cls-1" d="M150.66,20.45l.87-4.14c.04-.21,.25-.35,.46-.3l15.31,3.23c.21,.04,.35,.25,.3,.46l-.87,4.14c-.04,.21-.25,.35-.46,.3l-4.48-.94c-.21-.04-.42,.09-.46,.3l-3.8,18.02c-.04,.21-.25,.35-.46,.3l-4.82-1.02c-.21-.04-.35-.25-.3-.46l3.8-18.02c.04-.21-.09-.42-.3-.46l-4.48-.94c-.21-.04-.35-.25-.3-.46Z"/>
      <path class="cls-1" d="M189.37,33.02l-1.96,4.44c-.04,.09-.12,.17-.22,.21l-2.36,.91c-.2,.08-.3,.3-.22,.5l.91,2.36c.04,.1,.03,.2,0,.3l-2.16,4.88c-.61,1.37-1.44,2.26-2.51,2.67-1.06,.41-2.28,.31-3.65-.29l-10.39-4.6c-.2-.09-.29-.32-.2-.51l8.55-19.33c.02-.05,.03-.11,.03-.17l-.06-2.77,11.86,5.25c1.37,.61,2.26,1.44,2.67,2.51,.41,1.06,.31,2.28-.29,3.65Zm-10.94,10.62l1.64-3.71c.09-.2,0-.43-.2-.51l-3.87-1.71c-.2-.09-.43,0-.51,.2l-1.64,3.71c-.09,.2,0,.43,.2,.51l3.87,1.71c.2,.09,.43,0,.51-.2Zm3.99-9.01l1.43-3.24c.09-.2,0-.43-.2-.51l-3.87-1.71c-.2-.09-.43,0-.51,.2l-1.43,3.24c-.09,.2,0,.43,.2,.51l3.87,1.71c.2,.09,.43,0,.51-.2Z"/>
      <path class="cls-1" d="M203.2,36.79l-12.87,19.57c-.12,.18-.36,.23-.54,.11l-4.12-2.71c-.18-.12-.23-.36-.11-.54l11.61-17.66s.05-.1,.06-.16l.4-2.75,5.45,3.59c.18,.12,.23,.36,.11,.54Z"/>
      <path class="cls-1" d="M201.96,59.75l5.28,4.71c.22,.2,.15,.56-.13,.66l-4.56,1.6c-.13,.05-.28,.02-.39-.08l-7.79-6.96c-.16-.14-.17-.39-.03-.55l15.6-17.47c.14-.16,.39-.17,.55-.03l3.67,3.28c.16,.14,.17,.39,.03,.55l-12.26,13.73c-.14,.16-.13,.41,.03,.55Z"/>
      <path class="cls-1" d="M228.18,60.1l-17.9,15.11c-.16,.14-.41,.12-.55-.05l-3.18-3.76c-.14-.16-.12-.41,.05-.55l16.15-13.63s.08-.08,.1-.13l1.17-2.52,4.21,4.99c.14,.16,.12,.41-.05,.55Z"/>
      <path class="cls-1" d="M216.72,76.48l2.43-1.44c.19-.11,.42-.05,.53,.14l2.52,4.23c.11,.19,.05,.42-.14,.53l-1.8,1.07c-.19,.11-.25,.35-.14,.53l2.25,3.79c.11,.19,.35,.25,.53,.14l2.73-1.62c.46-.27,.6-.65,.44-1.15l-1.92-5.86c-.87-2.68-.1-4.73,2.29-6.15l3.33-1.98c1.29-.77,2.48-1.01,3.59-.73,1.11,.28,2.04,1.06,2.81,2.35l3.63,6.09c.77,1.29,1.01,2.48,.73,3.59s-1.06,2.04-2.35,2.81l-2.16,1.29c-.19,.11-.42,.05-.53-.14l-2.52-4.23c-.11-.19-.05-.42,.14-.53l1.53-.91c.19-.11,.25-.35,.14-.53l-2.16-3.64c-.11-.19-.35-.25-.53-.14l-2.31,1.37c-.46,.27-.6,.65-.44,1.15l1.92,5.86c.87,2.68,.1,4.73-2.29,6.15l-3.74,2.23c-1.29,.77-2.48,1.01-3.59,.73-1.11-.28-2.04-1.06-2.81-2.35l-3.71-6.24c-.77-1.29-1.01-2.48-.73-3.59s1.06-2.04,2.35-2.81Z"/>
      <path class="cls-1" d="M247.11,93.68l-21.78,8.63c-.2,.08-.43-.02-.51-.22l-1.82-4.58c-.08-.2,.02-.43,.22-.51l19.65-7.79c.05-.02,.1-.05,.14-.09l1.91-2.02,2.41,6.07c.08,.2-.02,.43-.22,.51Z"/>
    </g>
    <g>
      <path class="cls-1" d="M41.57,158.85l2,4.84c.07,.17,.01,.37-.15,.47l-12.57,8.32,14.8-2.94c.18-.04,.37,.06,.44,.23l1.67,4.04c.07,.17,.01,.37-.14,.47l-12.53,8.41,14.77-3c.18-.04,.37,.06,.44,.23l2,4.84c.1,.23-.05,.49-.3,.53l-23.72,3.95c-.18,.03-.36-.07-.42-.24l-2.01-4.86c-.07-.17-.01-.36,.14-.47l11.28-7.93-13.57,2.4c-.18,.03-.36-.07-.43-.23l-2.01-4.85c-.07-.17-.01-.36,.13-.47l19.58-13.94c.2-.15,.49-.06,.59,.17Z"/>
      <path class="cls-1" d="M40.06,207.3l3.07-3.24c.13-.14,.14-.34,.03-.5l-2.93-4.09c-.11-.15-.31-.21-.48-.13l-4.06,1.86c-.17,.08-.37,.02-.48-.13l-2.95-4.11c-.15-.21-.06-.49,.17-.59l20.04-8.07c.08-.03,.15-.09,.19-.17l1.34-2.37,5.32,7.43c.1,.15,.1,.35-.02,.48l-15.74,18.26c-.16,.19-.47,.18-.61-.03l-2.95-4.11c-.11-.15-.09-.36,.03-.5Zm4.63-10.22l2.17,3.04,6.42-6.77-.12-.17-8.48,3.9Z"/>
      <path class="cls-1" d="M58.25,199.62l2.99-2.99c.15-.15,.4-.15,.55,0l11.07,11.05c.15,.15,.15,.4,0,.55l-2.99,3c-.15,.15-.4,.15-.55,0l-3.24-3.24c-.15-.15-.4-.15-.55,0l-13.01,13.03c-.15,.15-.4,.15-.55,0l-3.48-3.48c-.15-.15-.15-.4,0-.55l13.01-13.03c.15-.15,.15-.4,0-.55l-3.24-3.24c-.15-.15-.15-.4,0-.55Z"/>
      <path class="cls-1" d="M70.91,224.4l-2.32,3.33c-.12,.18-.08,.42,.1,.54l7.09,4.93c.24,.17,.22,.54-.05,.67l-4.34,2.14c-.13,.06-.28,.05-.4-.03l-9.85-6.85c-.18-.12-.22-.37-.1-.54l12.07-17.35s.05-.1,.06-.16l.47-2.73,13.08,9.1c.24,.17,.22,.54-.05,.67l-4.34,2.14c-.13,.06-.28,.05-.4-.03l-5.17-3.59c-.18-.12-.42-.08-.54,.1l-2.02,2.91c-.12,.18-.08,.42,.1,.54l5.67,3.94c.24,.17,.22,.54-.05,.67l-4.34,2.14c-.13,.06-.28,.05-.4-.03l-3.75-2.61c-.18-.12-.42-.08-.54,.1Z"/>
      <path class="cls-1" d="M92.94,246.99l-4.6-2.09c-.15-.07-.24-.23-.23-.39l.68-7.35c.02-.17-.08-.32-.23-.39l-1.75-.79c-.2-.09-.43,0-.52,.19l-2.78,6.12c-.09,.2-.32,.28-.52,.19l-4.49-2.03c-.2-.09-.28-.32-.19-.52l8.72-19.25c.02-.05,.04-.11,.03-.17l-.03-2.78,11.81,5.35c1.36,.62,2.25,1.46,2.65,2.53,.4,1.07,.29,2.28-.32,3.65l-3.04,6.71c-.83,1.84-2.03,2.8-3.58,2.89-.2,.01-.36,.15-.38,.35l-.7,7.45c-.02,.27-.31,.43-.55,.32Zm-4.06-15.58l3.86,1.75c.2,.09,.43,0,.52-.19l2.43-5.37c.09-.2,0-.43-.19-.52l-3.86-1.75c-.2-.09-.43,0-.52,.19l-2.43,5.37c-.09,.2,0,.43,.19,.52Z"/>
      <path class="cls-1" d="M125.39,229.65c1.48,.21,2.57,.77,3.25,1.68,.69,.91,.92,2.11,.71,3.59l-1.04,7.29c-.21,1.48-.77,2.57-1.68,3.25-.91,.69-2.11,.92-3.59,.71l-5.6-.8c-.21-.03-.41,.12-.44,.33l-.95,6.66c-.03,.21-.23,.36-.44,.33l-4.88-.69c-.21-.03-.36-.23-.33-.44l2.97-20.92c0-.06,0-.11-.01-.17l-.81-2.66,12.84,1.82Zm-2.61,11.04l.83-5.83c.03-.21-.12-.41-.33-.44l-4.19-.59c-.21-.03-.41,.12-.44,.33l-.83,5.84c-.03,.21,.12,.41,.33,.44l4.19,.59c.21,.03,.41-.12,.44-.33Z"/>
      <path class="cls-1" d="M137.35,254.42c-1.5,.08-2.67-.26-3.52-1.03-.85-.76-1.31-1.89-1.39-3.39l-.79-15.19c-.08-1.5,.26-2.67,1.03-3.52,.76-.85,1.89-1.31,3.39-1.39l7.08-.37c1.5-.08,2.67,.26,3.52,1.03,.85,.77,1.31,1.89,1.39,3.39l.79,15.19c.08,1.5-.26,2.67-1.03,3.52-.76,.85-1.89,1.31-3.39,1.39l-7.08,.37Zm.75-5.45c.01,.22,.19,.38,.41,.37l4.23-.22c.22-.01,.38-.19,.37-.41l-.72-13.72c-.01-.22-.19-.38-.41-.37l-4.23,.22c-.22,.01-.38,.19-.37,.41l.72,13.72Z"/>
      <path class="cls-1" d="M160.27,246.3l6.89-1.6c.29-.07,.54,.2,.46,.49l-1.32,4.65c-.04,.14-.15,.24-.29,.27l-10.17,2.36c-.21,.05-.42-.08-.47-.29l-5.3-22.82c-.05-.21,.08-.42,.29-.47l4.8-1.11c.21-.05,.42,.08,.47,.29l4.17,17.93c.05,.21,.26,.34,.47,.29Z"/>
      <path class="cls-1" d="M178.31,246.12c-1.38,.57-2.6,.64-3.66,.2-1.05-.44-1.87-1.35-2.44-2.73l-5.82-14.06c-.57-1.38-.64-2.6-.2-3.66,.44-1.05,1.35-1.87,2.73-2.44l6.55-2.71c1.38-.57,2.6-.64,3.66-.2,1.05,.44,1.87,1.35,2.44,2.73l5.82,14.06c.57,1.38,.64,2.6,.2,3.66-.44,1.05-1.35,1.87-2.73,2.44l-6.55,2.71Zm-1.11-5.39c.08,.2,.31,.29,.51,.21l3.91-1.62c.2-.08,.29-.31,.21-.51l-5.26-12.7c-.08-.2-.31-.29-.51-.21l-3.91,1.62c-.2,.08-.29,.31-.21,.51l5.26,12.7Z"/>
      <path class="cls-1" d="M207.61,229.62c-1.16,.95-2.31,1.36-3.44,1.25-1.14-.11-2.18-.75-3.12-1.91l-9.62-11.79c-.95-1.16-1.36-2.31-1.25-3.44,.12-1.13,.75-2.18,1.92-3.12l5.49-4.48c1.16-.95,2.31-1.36,3.44-1.25,1.14,.12,2.18,.75,3.12,1.91l2.6,3.18c.14,.17,.11,.41-.06,.55l-3.82,3.11c-.17,.14-.41,.11-.55-.06l-2.13-2.61c-.14-.17-.38-.19-.55-.06l-3.28,2.68c-.17,.14-.19,.38-.06,.55l8.39,10.28c.36,.45,.77,.49,1.22,.12l2.91-2.38c.17-.14,.19-.38,.06-.55l-2.44-2.99c-.14-.17-.11-.41,.06-.55l3.82-3.11c.17-.14,.41-.11,.55,.06l2.9,3.56c.95,1.16,1.36,2.31,1.25,3.44-.11,1.14-.75,2.18-1.91,3.12l-5.49,4.48Z"/>
      <path class="cls-1" d="M221.17,209.65l4.62-5.36c.19-.22,.56-.16,.66,.12l1.68,4.53c.05,.13,.02,.28-.07,.39l-6.82,7.91c-.14,.16-.39,.18-.55,.04l-17.74-15.29c-.16-.14-.18-.39-.04-.55l3.21-3.73c.14-.16,.39-.18,.55-.04l13.95,12.02c.16,.14,.41,.12,.55-.04Z"/>
      <path class="cls-1" d="M241.06,189.52l-5.85,9.75c-.77,1.29-1.71,2.07-2.82,2.34-1.11,.28-2.3,.03-3.59-.74l-14.45-8.68s-.1-.05-.16-.05l-2.76-.29,3.36-5.6c.11-.18,.35-.24,.54-.13l15.79,9.47c.18,.11,.42,.05,.54-.13l2.18-3.63c.11-.18,.05-.42-.13-.54l-15.79-9.47c-.18-.11-.24-.35-.13-.54l2.53-4.22c.11-.18,.35-.24,.54-.13l20.09,12.05c.18,.11,.24,.35,.13,.54"/>
      <path class="cls-1" d="M231.51,160.48l4.57,1.64c.1,.03,.18,.11,.22,.2l1.08,2.29c.09,.19,.32,.28,.52,.19l2.29-1.08c.09-.04,.2-.05,.3-.01l5.02,1.8c1.41,.51,2.36,1.27,2.85,2.31,.49,1.03,.48,2.25-.03,3.66l-3.83,10.7c-.07,.2-.3,.31-.5,.24l-19.9-7.13c-.05-.02-.11-.03-.17-.02l-2.76,.26,4.37-12.21c.51-1.41,1.27-2.36,2.31-2.85,1.03-.49,2.25-.48,3.66,.03Zm2.1,6.81l-3.33-1.2c-.2-.07-.43,.03-.5,.24l-1.43,3.99c-.07,.2,.03,.43,.24,.5l3.34,1.19c.2,.07,.43-.03,.5-.24l1.43-3.99c.07-.2-.03-.43-.24-.5Zm9.28,3.32l-3.82-1.37c-.2-.07-.43,.03-.5,.24l-1.43,3.99c-.07,.2,.03,.43,.24,.5l3.82,1.37c.2,.07,.43-.03,.5-.24l1.43-3.98c.07-.2-.03-.43-.24-.5Z"/>
    </g>
  </g>
  <g>
    <rect class="cls-2" x="125.1" y="199.38" width="24.58" height="4" rx=".3" ry=".3"/>
    <circle class="cls-2" cx="144.52" cy="208.5" r="2.09"/>
    <circle class="cls-2" cx="130.28" cy="208.49" r="2.09"/>
    <circle class="cls-2" cx="144.5" cy="194.26" r="2.09"/>
    <circle class="cls-2" cx="130.29" cy="194.28" r="2.09"/>
    <rect class="cls-2" x="135.39" y="189.09" width="4" height="24.58" rx=".3" ry=".3"/>
  </g>
</svg>
