<svg width="16" height="16" viewBox="0 0 16 16" fill="none" xmlns="http://www.w3.org/2000/svg">
<path d="M2.6667 3.35178H4.44448V5.01412C5.01337 4.76115 5.60003 4.56239 6.22226 4.43591V3.35178H9.77781V4.43591C10.4 4.56239 10.9867 4.76115 11.5556 5.01412V3.35178H13.3334C13.5734 3.35178 13.7956 3.2524 13.9645 3.08978L15.7423 1.28289L14.48 0L12.96 1.54489H3.03115L1.52003 0L0.257812 1.27386L2.03559 3.08075C2.20448 3.2524 2.4267 3.35178 2.6667 3.35178Z" fill="#8D959D"/>
<path d="M8 5.15869C3.59111 5.15869 0 8.80861 0 13.2897V15.0966C0 15.5935 0.4 16 0.888889 16H15.1111C15.6 16 16 15.5935 16 15.0966V13.2897C16 8.79957 12.4089 5.15869 8 5.15869ZM8.88889 12.3862H7.11111V8.77247H8.88889V12.3862Z" fill="#8D959D"/>
</svg>
