<svg viewBox="0 0 26 26" xmlns="http://www.w3.org/2000/svg">
<path d="M10.5659 18.3866C11.3096 18.3866 11.9125 17.7837 11.9125 17.04C11.9125 16.2963 11.3096 15.6934 10.5659 15.6934C9.82214 15.6934 9.21924 16.2963 9.21924 17.04C9.21924 17.7837 9.82214 18.3866 10.5659 18.3866Z" />
<path d="M15.4345 18.3861C16.1782 18.3861 16.7811 17.7832 16.7811 17.0395C16.7811 16.2958 16.1782 15.6929 15.4345 15.6929C14.6908 15.6929 14.0879 16.2958 14.0879 17.0395C14.0879 17.7832 14.6908 18.3861 15.4345 18.3861Z" />
<path d="M13 0C5.83187 0 0 5.83187 0 13C0 20.1681 5.83187 26 13 26C20.1681 26 26 20.1681 26 13C26 5.83187 20.1681 0 13 0ZM13 23.6175C7.14741 23.6175 2.38247 18.8526 2.38247 13C2.38247 11.612 2.65179 10.2757 3.13865 9.06375C5.29323 11.0837 8.20398 12.3267 11.3944 12.3267C14.6677 12.3267 17.6406 11.0215 19.8159 8.89801C19.6709 9.36414 19.5984 9.851 19.5984 10.3586C19.5984 12.6892 21.2247 14.647 23.4 15.1442C22.4056 19.9817 18.1171 23.6175 13 23.6175Z" />
<path d="M14.4503 21.7013H11.5499C11.0941 21.7013 10.7212 21.3284 10.7212 20.8726C10.7212 20.4169 11.0941 20.0439 11.5499 20.0439H14.4503C14.9061 20.0439 15.279 20.4169 15.279 20.8726C15.279 21.3284 14.9061 21.7013 14.4503 21.7013Z" />
</svg>
