<svg  viewBox="0 0 27 37"  xmlns="http://www.w3.org/2000/svg">
<path d="M13.8618 26.9391C15.0667 27.51 15.7533 27.0599 15.9093 26.506C16.0869 25.9035 15.7008 25.0432 15.4031 24.312C14.8864 23.0634 14.2929 21.6863 14.6493 20.2954C13.8479 21.5731 14.3329 23.1492 14.8855 24.5257C15.2942 25.4902 15.5407 26.0116 15.4819 26.399C15.4021 27.1133 14.3373 26.9844 13.8618 26.9391Z" />
<path d="M11.583 24.312C11.2777 25.0634 10.9033 25.9175 11.0768 26.506C11.1827 26.8822 11.5345 27.1849 12.0555 27.2148C12.4551 27.2204 12.8037 27.091 13.1245 26.9391C12.7702 26.9729 12.4101 27.0348 12.095 26.9447C11.78 26.866 11.5379 26.6522 11.5045 26.399C11.4423 25.9926 11.7137 25.4385 12.1005 24.5257C12.6551 23.1459 13.1381 21.572 12.3368 20.2954C12.6935 21.6876 12.1002 23.062 11.583 24.312Z" />
<path d="M11.3973 16.2734C9.08656 14.3664 6.10105 15.5927 4.87744 17.0498C8.29939 15.2834 9.82924 15.8121 11.3973 16.2734Z"/>
<path d="M18.9975 15.3508C17.8348 15.1552 16.6063 15.4334 15.5884 16.2734C16.5138 16.0013 17.5582 15.6574 18.9074 15.9078C20.01 16.0766 21.062 16.5097 22.1083 17.0498C21.4504 16.2657 20.314 15.5724 18.9975 15.3508Z" />
<path d="M11.6001 18.895C10.6286 18.2235 9.45396 17.4188 8.18529 17.4886C7.20083 17.5449 6.25012 18.1693 5.69336 19.1313C6.19381 18.805 6.73959 18.6025 7.30794 18.4956C7.26288 18.625 7.23458 18.76 7.23458 18.9006C7.23458 19.5307 7.74662 20.0483 8.38224 20.0483C9.01787 20.0483 9.52985 19.5307 9.52985 18.9006C9.52985 18.7488 9.50183 18.5969 9.44552 18.4619C10.1542 18.5406 10.8799 18.6981 11.6001 18.895Z" />
<path d="M18.8008 17.4886C17.5433 17.4194 16.3836 18.2053 15.3862 18.895C16.1062 18.6981 16.8319 18.5406 17.5406 18.4619C17.4845 18.5969 17.4563 18.7488 17.4563 18.9006C17.4563 19.5307 17.9682 20.0483 18.6039 20.0483C19.2398 20.0483 19.7515 19.5307 19.7515 18.9006C19.7515 18.76 19.7234 18.625 19.6784 18.4957C20.2467 18.6025 20.7922 18.805 21.293 19.1313C20.7359 18.1693 19.7853 17.545 18.8008 17.4886Z" />
<path d="M26.4457 8.77436C24.4826 3.45825 18.3058 0.307959 14.6885 0.0379902C11.8307 -0.175779 6.80149 0.409218 6.53147 4.48209C6.49771 4.99407 6.1266 5.43843 5.58081 5.62413C3.85935 6.21475 0.410963 7.94184 0.517848 12.2172C0.557395 13.8543 0.872199 15.3562 1.29985 16.6614C0.163497 17.6064 -0.106528 19.6654 0.0341101 21.2968C0.292546 24.2274 1.84209 26.3061 3.40942 25.9154C3.42618 26.6972 3.39243 27.3555 3.3081 28.5819C3.3081 32.023 7.35155 36.0075 13.4961 36.0075H13.5466C18.0374 36.0075 23.2224 33.4247 23.678 28.7787C23.6784 28.7756 23.5563 26.8709 23.5769 25.921C25.6964 26.1845 26.7684 23.4423 26.9523 21.2968C27.0929 19.6598 26.8171 17.5895 25.6695 16.6501C26.6372 14.8837 27.6329 12.0034 26.4457 8.77436ZM1.19302 21.1955C1.07489 19.8229 1.30536 18.5909 1.75557 17.9046C1.9973 18.484 2.25056 19.0072 2.49229 19.4798C3.42044 24.0029 2.76592 19.8968 3.35311 24.7396C2.47339 25.0706 1.39408 23.4774 1.19302 21.1955ZM18.2157 33.8473C16.7655 34.2398 15.5899 34.8431 13.5466 34.8431H13.4453C11.3743 34.8431 10.1824 34.2294 8.77042 33.8473C6.35708 32.8684 4.68641 30.9108 4.46696 28.6662C4.82952 23.6664 4.01202 21.5951 3.97748 20.1379C3.93822 18.7878 3.99998 16.9989 4.49526 15.9638C6.06984 12.629 5.48518 10.489 5.64837 9.79258C5.96537 8.14537 8.19071 7.19725 10.5144 8.74623C12.4946 10.0627 15.8249 9.35947 17.4787 8.88687C18.1707 8.69003 18.9302 8.75754 19.5545 9.08939C23.2281 11.0246 20.6178 12.189 22.6598 15.8907C22.9581 16.4363 23.0762 17.0439 23.0087 17.6402C22.8889 18.6611 22.9542 19.7455 23.0817 20.3573C22.7782 21.6793 22.5755 23.0632 22.4854 24.5146C22.3694 26.3102 22.3874 26.8491 22.5192 28.6662C22.3 30.9108 20.6291 32.8684 18.2157 33.8473ZM25.7934 21.1955C25.59 23.5001 24.5011 25.0636 23.6388 24.7396C23.7001 24.177 23.7274 22.6176 24.2969 20.2617C24.877 18.2054 24.3663 18.8982 25.0619 17.6795C25.6189 18.2927 25.9227 19.6542 25.7934 21.1955Z"/>
<path d="M10.1378 29.2063C10.1205 31.2948 13.8635 32.1775 16.8491 29.1558C14.8448 29.5184 12.0395 30.8395 10.1378 29.2063Z" />
</svg>
