<svg viewBox="0 0 32 33" xmlns="http://www.w3.org/2000/svg">
<path d="M25.8317 24.4935H20.2956V22.0687C23.4886 20.0635 24.9653 16.4672 25.3794 15.0287C25.5157 14.9251 25.6137 14.778 25.6519 14.5982C25.7485 12.8113 27.8653 8.57626 24.4422 4.44138C18.2827 -3.0072 4.81084 1.88186 6.61874 11.476C7.27736 14.5689 7.10179 14.7387 7.49057 15.0341C7.89924 16.4726 9.35956 20.0744 12.5308 22.0741V24.4935H7.03831C3.63812 24.4935 0.870117 27.256 0.870117 30.6562V30.7924C0.870117 31.6915 1.60572 32.4271 2.5048 32.4271H30.3652C31.2643 32.4271 31.9999 31.6915 31.9999 30.7924V30.6562C31.9999 27.256 29.2318 24.4935 25.8317 24.4935ZM19.2058 24.7441C19.0361 24.8007 18.4013 25.3489 16.4159 25.3489C14.4239 25.3489 13.6751 24.7622 13.6206 24.7441V22.6626C14.6269 23.1271 15.5092 23.311 16.3996 23.311C17.4068 23.311 18.246 23.0811 19.1676 22.6735C19.1785 22.6626 19.1949 22.6626 19.2058 22.6571V24.7441ZM8.55312 14.7943C8.7301 14.4626 8.86539 8.18159 12.0786 8.1684C13.1443 8.19379 13.5244 8.79503 16.3996 8.79503C16.405 8.79503 16.405 8.79503 16.4105 8.79503H16.4377C18.6064 8.79503 19.7725 8.37001 20.0395 8.26103C24.0162 7.33036 24.1397 14.4206 24.3114 14.7889C23.1714 18.3767 19.8998 22.2212 16.4105 22.2212C15.6172 22.2212 14.6357 22.0403 13.3536 21.2949C13.3482 21.2949 13.3482 21.2894 13.3427 21.2894C10.2423 19.4804 8.9073 15.9386 8.55312 14.7943Z" />
<path d="M13.621 12.8792C14.2277 12.8792 14.7196 12.3874 14.7196 11.7807C14.7196 11.174 14.2277 10.6821 13.621 10.6821C13.0143 10.6821 12.5225 11.174 12.5225 11.7807C12.5225 12.3874 13.0143 12.8792 13.621 12.8792Z" />
<path d="M19.2529 12.8792C19.8596 12.8792 20.3514 12.3874 20.3514 11.7807C20.3514 11.174 19.8596 10.6821 19.2529 10.6821C18.6461 10.6821 18.1543 11.174 18.1543 11.7807C18.1543 12.3874 18.6461 12.8792 19.2529 12.8792Z" />
<path d="M14.5269 19.0659C15.0371 19.5762 15.7156 19.8571 16.4372 19.8571C17.1588 19.8571 17.8372 19.5762 18.347 19.0659C18.5598 18.8531 18.5598 18.508 18.347 18.2954C18.1342 18.0825 17.7894 18.0825 17.5765 18.2954C16.9677 18.9041 15.9061 18.9041 15.2974 18.2954C15.0846 18.0825 14.7397 18.0825 14.5269 18.2954C14.314 18.5082 14.314 18.8533 14.5269 19.0659Z" />
</svg>
