<svg width="60" height="60" viewBox="0 0 60 60" fill="none" xmlns="http://www.w3.org/2000/svg">
<path fill-rule="evenodd" clip-rule="evenodd" d="M10.8315 53.1198C16.6875 54.0832 22.706 53.6748 28.4703 52.2454C32.4424 51.261 36.5482 49.753 40.2295 47.834C40.9422 50.6432 41.1596 53.5256 40.9291 56.429L40.9264 56.4657V56.5023C40.9212 56.9709 40.7404 57.4003 40.4574 57.7668C40.3212 57.9448 40.0094 58.2695 39.805 58.3533C36.6399 59.4476 33.3228 60 29.9716 60C22.9287 60.0052 16.2002 57.5678 10.8315 53.1198ZM45.2313 55.8452C45.5562 49.0462 43.6802 42.5639 39.8155 36.943C37.798 34.0056 35.1962 31.2226 32.3429 29.0654C32.2931 28.9737 32.2302 28.8166 32.2092 28.7224C32.7385 24.0492 34.6067 19.287 37.3945 15.5014C37.5045 15.483 37.6408 15.4752 37.722 15.4856C41.2015 17.3209 44.4662 19.9703 47.1545 22.8187C52.0096 27.9632 55.4315 34.1941 57.5853 40.9093C57.6141 41.1266 57.5957 41.6633 57.5538 41.8832C55.0306 47.7162 50.6969 52.6172 45.2313 55.8452ZM25.7978 0.966053C26.762 0.0733048 28.7376 0 29.9716 0C35.1569 0 40.2085 1.31949 44.7047 3.85636C38.5369 7.06344 33.687 11.9722 30.7446 18.3341C29.2852 21.4914 28.2162 25.1933 27.9096 28.7041C25.9471 29.9424 22.3942 30.4555 20.264 30.6414C18.0893 30.8325 15.7102 30.8744 13.5198 30.6336C13.5408 26.4342 14.2508 22.049 15.477 18.0435C17.4657 11.5403 20.8981 5.70992 25.7978 0.966053Z" fill="#3289E0"/>
<path d="M35.0568 45.9057C36.1467 45.3978 37.5878 44.6596 38.6358 43.848C36.9642 39.023 33.8725 35.1668 29.7668 32.1823C21.7179 35.405 13.0873 35.8265 4.95459 32.5959C3.24891 31.9205 1.58515 31.122 0.00786026 30.1821C0.00262009 30.2738 0 30.3654 0 30.4544C0 35.7872 1.34411 40.5179 4.01921 45.0994C4.44629 45.8272 5.85328 47.4399 6.6655 47.7226C13.4122 49.9165 20.6489 50.0474 27.5371 48.453C30.0996 47.8587 32.6699 47.0157 35.0568 45.9057Z" fill="#FEBB10"/>
<path d="M48.4428 18.0296C53.2402 22.5587 56.8926 28.4753 59.4681 34.604C59.7826 33.0856 59.9974 31.5462 60 30.0016C60 21.0664 56.0542 12.6758 49.2 6.95815C49.0716 6.88746 48.7598 6.78798 48.5581 6.74609C45.5555 8.06032 42.7965 9.8196 40.4175 12.0789C43.3153 13.6864 46.0428 15.765 48.4428 18.0296Z" fill="#FEBB10"/>
<path d="M0.738972 25.8312C3.325 27.6062 6.21757 28.9649 9.24378 29.8053C9.30928 26.4072 9.79137 22.9252 10.5748 19.6554C12.1521 13.0738 15.0735 6.94247 19.5224 1.86621C9.62893 5.534 2.28482 14.2231 0.414081 24.6898C0.366919 24.9463 0.492683 25.6663 0.738972 25.8312Z" fill="#FEBB10"/>
</svg>
