<svg viewBox="0 0 16 16" xmlns="http://www.w3.org/2000/svg">
  <path d="M12 14.4H4V16H12V14.4Z" />
  <path d="M15.2 0.8H12.576C12.304 0.328 11.792 0 11.2 0H4.8C4.208 0 3.696 0.328 3.424 0.8H0.8C0.36 0.8 0 1.16 0 1.6V4.8C0 5.04 0.112 5.272 0.304 5.424L4.248 8.576C4.968 9.488 6.016 10.12 7.208 10.328V11.2H5.6C5.16 11.2 4.8 11.56 4.8 12V13.6H11.2V12C11.2 11.56 10.84 11.2 10.4 11.2H8.8V10.328C9.992 10.128 11.032 9.488 11.76 8.576L15.704 5.424C15.888 5.272 16 5.04 16 4.8V1.6C16 1.16 15.64 0.8 15.2 0.8ZM1.6 4.416V2.4H3.2V5.6C3.2 5.632 3.208 5.664 3.208 5.696L1.6 4.416ZM14.4 4.416L12.792 5.704C12.792 5.664 12.8 5.632 12.8 5.6V2.4H14.4V4.416Z" />
</svg>
