<?xml version="1.0" encoding="UTF-8"?>
<svg id="Layer_1" data-name="Layer 1" xmlns="http://www.w3.org/2000/svg" viewBox="0 0 277.03 103.05">
  <defs>
    <style>
      .cls-1 {
      fill: #fff;
      }
    </style>
  </defs>
  <path class="cls-1" d="M172.14,.16h4.79c.21,0,.4,.15,.44,.36l2.71,13.92,2.77-13.93c.04-.21,.23-.36,.44-.36h4.01c.21,0,.4,.15,.44,.36l2.8,13.93,2.71-13.92c.04-.21,.23-.36,.44-.36h4.79c.29,0,.5,.27,.44,.55l-5.09,21.99c-.05,.2-.23,.35-.44,.35h-4.84c-.21,0-.39-.15-.44-.35l-2.83-12.66-2.8,12.66c-.05,.21-.23,.35-.44,.35h-4.84c-.21,0-.39-.14-.44-.35L171.71,.71c-.06-.28,.15-.55,.44-.55Z"/>
  <path class="cls-1" d="M212.38,.16c1.42,0,2.51,.38,3.27,1.14,.76,.76,1.14,1.85,1.14,3.27v6.96c0,1.42-.38,2.51-1.14,3.27-.76,.76-1.85,1.14-3.27,1.14h-5.27c-.25,0-.45,.2-.45,.45v6.2c0,.25-.2,.45-.45,.45h-4.5c-.25,0-.45-.2-.45-.45V2.71c0-.07-.01-.13-.04-.19l-1.1-2.36h12.26Zm-.98,10.23V5.72c0-.45-.37-.82-.82-.82h-3.48c-.25,0-.45,.2-.45,.45v5.41c0,.25,.2,.45,.45,.45h3.48c.45,0,.82-.37,.82-.82Z"/>
  <path class="cls-1" d="M223.27,23.21c-1.42,0-2.51-.38-3.27-1.14-.76-.76-1.14-1.85-1.14-3.27V4.41c0-1.42,.38-2.51,1.14-3.27,.76-.76,1.85-1.14,3.27-1.14h6.7c1.42,0,2.51,.38,3.27,1.14,.76,.76,1.14,1.85,1.14,3.27v3.8c0,.25-.2,.45-.45,.45h-4.5c-.25,0-.45-.2-.45-.45v-2.66c0-.45-.37-.82-.82-.82h-3.11c-.45,0-.82,.37-.82,.82v12.1c0,.45,.37,.82,.82,.82h3.11c.45,0,.82-.37,.82-.82v-3.12c0-.25,.2-.45,.45-.45h4.5c.25,0,.45,.2,.45,.45v4.26c0,1.42-.38,2.51-1.14,3.27s-1.85,1.14-3.27,1.14h-6.7Z"/>
  <path class="cls-1" d="M183.95,26.77c1.42,0,2.51,.38,3.27,1.14,.76,.76,1.14,1.85,1.14,3.27v14.06c0,1.42-.38,2.51-1.14,3.27s-1.85,1.14-3.27,1.14h-10.67c-.25,0-.45-.2-.45-.45V29.33c0-.07-.01-.13-.04-.19l-1.1-2.36h12.26Zm-.98,17.7v-12.51c0-.25-.2-.45-.45-.45h-3.84c-.25,0-.45,.2-.45,.45v12.51c0,.25,.2,.45,.45,.45h3.84c.25,0,.45-.2,.45-.45Z"/>
  <path class="cls-1" d="M196.64,27.22v21.99c0,.25-.2,.45-.45,.45h-4.5c-.25,0-.45-.2-.45-.45V29.33c0-.07-.01-.13-.04-.19l-1.1-2.36h6.09c.25,0,.45,.2,.45,.45Z"/>
  <path class="cls-1" d="M211.24,26.77h4.5c.25,0,.45,.2,.45,.45v21.99c0,.25-.2,.45-.45,.45h-4.34c-.17,0-.33-.1-.4-.25l-5.76-11.59v11.39c0,.25-.2,.45-.45,.45h-4.5c-.25,0-.45-.2-.45-.45V29.33c0-.07-.01-.13-.04-.19l-1.1-2.36h5.93c.17,0,.33,.1,.4,.25l5.76,11.59v-11.39c0-.25,.2-.45,.45-.45Z"/>
  <path class="cls-1" d="M230.66,49.3l-.87-4.38h-5.31l-.87,4.38c-.04,.21-.23,.36-.44,.36h-4.62c-.29,0-.5-.27-.44-.55l4.8-19.73c.02-.1,.01-.2-.03-.3l-1.08-2.31h8.57c.21,0,.39,.14,.44,.34l5.34,21.99c.07,.28-.15,.55-.44,.55h-4.62c-.21,0-.4-.15-.44-.36Zm-5.24-9.12h3.43l-1.72-8.66h0l-1.72,8.66Z"/>
  <path class="cls-1" d="M253.5,26.77h4.84c.25,0,.45,.2,.45,.45v21.99c0,.25-.2,.45-.45,.45h-4.5c-.25,0-.45-.2-.45-.45v-12.96l-4.68,8.39c-.17,.31-.61,.31-.78,0l-4.68-8.39v12.96c0,.25-.2,.45-.45,.45h-4.5c-.25,0-.45-.2-.45-.45V29.33c0-.07-.01-.13-.04-.19l-1.1-2.36h6.43c.16,0,.32,.09,.39,.24l4.78,8.85,4.78-8.85c.08-.14,.23-.24,.39-.24Z"/>
  <path class="cls-1" d="M265.91,49.82c-1.42,0-2.51-.38-3.27-1.14-.76-.76-1.14-1.85-1.14-3.27v-14.38c0-1.42,.38-2.51,1.14-3.27,.76-.76,1.85-1.14,3.27-1.14h6.7c1.42,0,2.51,.38,3.27,1.14,.76,.76,1.14,1.85,1.14,3.27v14.38c0,1.42-.38,2.51-1.14,3.27-.76,.76-1.85,1.14-3.27,1.14h-6.7Zm.98-5.56c0,.54,.27,.82,.82,.82h3.11c.54,0,.82-.27,.82-.82v-12.1c0-.54-.27-.82-.82-.82h-3.11c-.55,0-.82,.27-.82,.82v12.1Z"/>
  <path class="cls-1" d="M171.69,57.68v-3.83c0-.25,.21-.46,.46-.46h14.61c.25,0,.46,.21,.46,.46v3.83c0,.25-.2,.45-.45,.45h-4.62v17.7c0,.25-.2,.45-.45,.45h-4.5c-.25,0-.45-.2-.45-.45v-17.7h-4.62c-.25,0-.45-.2-.45-.45Z"/>
  <path class="cls-1" d="M205.14,57.8v4.55c0,.12-.05,.23-.13,.32l-1.61,1.61c-.17,.17-.17,.46,0,.63l1.61,1.61c.08,.08,.13,.2,.13,.32v5.01c0,1.42-.38,2.51-1.14,3.27s-1.85,1.14-3.27,1.14h-10.67c-.25,0-.45-.2-.45-.45v-19.89c0-.07-.01-.13-.04-.19l-1.1-2.36h12.26c1.42,0,2.51,.38,3.27,1.14,.76,.76,1.14,1.85,1.14,3.27Zm-5.39,3.6v-2.45c0-.45-.37-.82-.82-.82h-3.92v4.09h3.92c.45,0,.82-.37,.82-.82Zm0,9.32v-2.94c0-.45-.37-.82-.82-.82h-3.92v4.58h3.92c.45,0,.82-.37,.82-.82Z"/>
  <path class="cls-1" d="M213.41,53.83v21.99c0,.25-.2,.45-.45,.45h-4.5c-.25,0-.45-.2-.45-.45v-19.89c0-.07-.01-.13-.04-.19l-1.1-2.36h6.09c.25,0,.45,.2,.45,.45Z"/>
  <path class="cls-1" d="M222.13,71.53h6.48c.34,0,.56,.37,.39,.66l-2.12,3.84c-.08,.14-.23,.23-.39,.23h-9.75c-.25,0-.45-.2-.45-.45v-21.99c0-.25,.2-.45,.45-.45h4.5c.25,0,.45,.2,.45,.45v17.25c0,.25,.2,.45,.45,.45Z"/>
  <path class="cls-1" d="M236,53.83v21.99c0,.25-.2,.45-.45,.45h-4.5c-.25,0-.45-.2-.45-.45v-19.89c0-.07-.01-.13-.04-.19l-1.1-2.36h6.09c.25,0,.45,.2,.45,.45Z"/>
  <path class="cls-1" d="M238.55,72.02v-2.59c0-.25,.2-.45,.45-.45h4.5c.25,0,.45,.2,.45,.45v1.45c0,.45,.37,.82,.82,.82h3.27c.45,0,.82-.37,.82-.82v-2.55c0-.5-.24-.81-.72-.92l-5.69-1.27c-2.59-.59-3.89-2.2-3.89-4.84v-3.66c0-1.42,.38-2.51,1.14-3.27,.76-.76,1.85-1.14,3.27-1.14h6.7c1.42,0,2.51,.38,3.27,1.14,.76,.76,1.14,1.85,1.14,3.27v2.3c0,.25-.2,.45-.45,.45h-4.5c-.25,0-.45-.2-.45-.45v-1.15c0-.45-.37-.82-.82-.82h-3.11c-.45,0-.82,.37-.82,.82v2.09c0,.5,.24,.81,.72,.92l5.69,1.27c2.59,.59,3.89,2.2,3.89,4.84v4.12c0,1.42-.38,2.51-1.14,3.27s-1.85,1.14-3.27,1.14h-6.87c-1.42,0-2.51-.38-3.27-1.14-.76-.76-1.14-1.85-1.14-3.27Z"/>
  <path class="cls-1" d="M262.19,53.83v21.99c0,.25-.2,.45-.45,.45h-4.5c-.25,0-.45-.2-.45-.45v-19.89c0-.07-.01-.13-.04-.19l-1.1-2.36h6.09c.25,0,.45,.2,.45,.45Z"/>
  <path class="cls-1" d="M172.14,79.76h3.95c.25,0,.45,.2,.45,.45v22.27c0,.25-.2,.45-.45,.45h-1.5c-.25,0-.45-.2-.45-.45v-19.8c0-.25-.2-.45-.45-.45h-1.56c-.25,0-.45-.2-.45-.45v-1.57c0-.25,.2-.45,.45-.45Z"/>
  <path class="cls-1" d="M230.29,83.68c0-2.12-1.73-3.85-3.85-3.85h-7.83c-2.12,0-3.85,1.73-3.85,3.85v5.29c0,.12,.05,.23,.13,.32l1.61,1.61c.17,.17,.17,.46,0,.63l-1.61,1.61c-.08,.08-.13,.2-.13,.32v5.75c0,2.12,1.73,3.85,3.85,3.85h7.83c2.12,0,3.85-1.73,3.85-3.85v-5.75c0-.12-.05-.23-.13-.32l-1.61-1.61c-.17-.17-.17-.46,0-.63l1.61-1.61c.08-.08,.13-.2,.13-.32v-5.29Zm-2.39,15.44c0,.86-.71,1.57-1.57,1.57h-7.6c-.86,0-1.57-.71-1.57-1.57v-4.79c0-.13,.05-.25,.15-.33l1.36-1.25c.08-.08,.19-.12,.3-.12h7.12c.11,0,.22,.04,.3,.12l1.36,1.25c.09,.08,.15,.2,.15,.33v4.79Zm0-15.37v4.79c0,.13-.05,.25-.15,.33l-1.36,1.25c-.08,.08-.19,.12-.3,.12h-7.12c-.11,0-.22-.04-.3-.12l-1.36-1.25c-.09-.08-.15-.2-.15-.33v-4.79c0-.86,.71-1.57,1.57-1.57h7.6c.86,0,1.57,.71,1.57,1.57Z"/>
  <path class="cls-1" d="M211.52,83.68c0-2.12-1.73-3.85-3.85-3.85h-7.83c-2.12,0-3.85,1.73-3.85,3.85v3.06c0,.25,.2,.45,.45,.45h1.5c.25,0,.45-.2,.45-.45v-2.98c0-.86,.71-1.57,1.57-1.57h7.6c.86,0,1.57,.71,1.57,1.57v4.79c0,.13-.05,.25-.15,.33l-1.36,1.25c-.08,.08-.19,.12-.3,.12h-5.06c-.25,0-.45,.2-.45,.45v1.5c0,.25,.2,.45,.45,.45h5.06c.11,0,.22,.04,.3,.12l1.36,1.25c.09,.08,.15,.2,.15,.33v4.79c0,.86-.71,1.57-1.57,1.57h-7.6c-.86,0-1.57-.71-1.57-1.57v-3.28c0-.25-.2-.45-.45-.45h-1.5c-.25,0-.45,.2-.45,.45v3.35c0,2.12,1.73,3.85,3.85,3.85h7.83c2.12,0,3.85-1.73,3.85-3.85v-5.75c0-.12-.05-.23-.13-.32l-1.61-1.61c-.17-.17-.17-.46,0-.63l1.61-1.61c.08-.08,.13-.2,.13-.32v-5.29Z"/>
  <path class="cls-1" d="M190.18,79.72h-7.83c-2.12,0-3.85,1.73-3.85,3.85v6.42c0,2.12,1.72,3.85,3.85,3.85h8.84c.25,0,.45,.2,.45,.45v4.73c0,.86-.71,1.57-1.57,1.57h-10.78c-.35,0-.56,.38-.38,.68l.87,1.46c.08,.14,.23,.22,.38,.22h10.03c2.12,0,3.85-1.73,3.85-3.85v-15.52c0-2.12-1.73-3.85-3.85-3.85Zm1.01,11.72h-8.72c-.87,0-1.57-.7-1.57-1.57v-6.23c0-.86,.71-1.57,1.57-1.57h7.6c.86,0,1.57,.71,1.57,1.57v7.35c0,.25-.2,.45-.45,.45Z"/>
  <g>
    <path class="cls-1" d="M142.28,54.52c-1.57,27.33-24.51,48.53-51.88,48.53H.33c-.24,0-.4-.24-.3-.46l11.32-25.58c.05-.12,.17-.2,.3-.2H90.52c13.68,0,25.13-10.75,25.59-24.42,.48-14.36-11.02-26.15-25.27-26.15H34.04c-.13,0-.25-.08-.3-.2L22.45,.46C22.36,.24,22.52,0,22.75,0H90.35c29.53,0,53.64,24.61,51.93,54.52Z"/>
    <path class="cls-1" d="M108.15,51.52c0,5.14-2.23,9.77-5.78,12.95-.54,.46-1.07,.88-1.62,1.29-8.45,6.28-17.99,6.5-29.68,2.63-2.76-.91-5.45-2.03-8.07-3.27-26.73-12.11-43.23,.46-47.66,4.61-.26,.24-.67-.05-.52-.38,13.66-31.08,33.69-35.91,56.88-26.57,11.69,4.9,23.75,8.04,34.17,.89,.16-.11,.39-.06,.48,.12,1.16,2.33,1.81,4.96,1.81,7.74Z"/>
  </g>
  <g>
    <rect class="cls-1" x="233.13" y="89.58" width="23.16" height="3.77" rx=".3" ry=".3"/>
    <circle class="cls-1" cx="251.43" cy="98.18" r="1.97"/>
    <circle class="cls-1" cx="238.01" cy="98.16" r="1.97"/>
    <circle class="cls-1" cx="251.41" cy="84.76" r="1.97"/>
    <circle class="cls-1" cx="238.03" cy="84.78" r="1.97"/>
    <rect class="cls-1" x="242.82" y="79.89" width="3.77" height="23.16" rx=".3" ry=".3"/>
  </g>
</svg>
