<svg width="24" height="24" viewBox="0 0 24 24" fill="none" xmlns="http://www.w3.org/2000/svg">
<path d="M16.7996 4H7.19961C6.31961 4 5.59961 4.72 5.59961 5.6H18.3996C18.3996 4.72 17.6796 4 16.7996 4Z" fill="#1A1C1F"/>
<path d="M5.59961 6.4V8C5.59961 8.208 5.67961 8.408 5.83161 8.568L10.3996 13.128V19.2C10.3996 19.52 10.5916 19.816 10.8956 19.936C10.9916 19.984 11.0956 20 11.1996 20C11.4076 20 11.6156 19.92 11.7676 19.768L13.3676 18.168C13.5116 18.016 13.5996 17.816 13.5996 17.6V13.128L18.1676 8.56C18.3196 8.408 18.3996 8.208 18.3996 8V6.4H5.59961Z" fill="#1A1C1F"/>
</svg>
