<svg viewBox="0 0 14 16"  xmlns="http://www.w3.org/2000/svg">
<path d="M11.8 0H2.19998C1.31998 0 0.599976 0.72 0.599976 1.6H13.4C13.4 0.72 12.68 0 11.8 0Z" />
<path d="M0.599976 2.4V4C0.599976 4.208 0.679976 4.408 0.831976 4.568L5.39998 9.128V15.2C5.39998 15.52 5.59198 15.816 5.89598 15.936C5.99198 15.984 6.09598 16 6.19998 16C6.40798 16 6.61598 15.92 6.76798 15.768L8.36798 14.168C8.51198 14.016 8.59998 13.816 8.59998 13.6V9.128L13.168 4.56C13.32 4.408 13.4 4.208 13.4 4V2.4H0.599976Z" />
</svg>
