<svg width="16" height="16" viewBox="0 0 16 16" fill="none" xmlns="http://www.w3.org/2000/svg">
<path d="M10.9991 3H12.2941L10.6441 4.645L11.3541 5.355L12.9991 3.705V5H13.9991V2H10.9991V3Z" fill="#8D959D"/>
<path d="M4.64503 10.6448L3.00003 12.2948V10.9998H2.00003V13.9998H5.00003V12.9998H3.70503L5.35503 11.3548L4.64503 10.6448Z" fill="#8D959D"/>
<path d="M5 3V2H2V5H3V3.705L4.645 5.355L5.355 4.645L3.705 3H5Z" fill="#8D959D"/>
<path d="M12.9991 12.2948L11.3541 10.6448L10.6441 11.3548L12.2941 12.9998H10.9991V13.9998H13.9991V10.9998H12.9991V12.2948Z" fill="#8D959D"/>
<path d="M9.49954 5.50024H6.49954C5.94954 5.50024 5.49954 5.95024 5.49954 6.50024V9.50024C5.49954 10.0502 5.94954 10.5002 6.49954 10.5002H9.49954C10.0495 10.5002 10.4995 10.0502 10.4995 9.50024V6.50024C10.4995 5.95024 10.0495 5.50024 9.49954 5.50024Z" fill="#8D959D"/>
</svg>
