<svg width="114" height="71" viewBox="0 0 114 71" fill="none" xmlns="http://www.w3.org/2000/svg">
<mask id="path-1-outside-1" maskUnits="userSpaceOnUse" x="55.5044" y="6.87817" width="58" height="59" fill="black">
<rect fill="white" x="55.5044" y="6.87817" width="58" height="59"/>
<path fill-rule="evenodd" clip-rule="evenodd" d="M89.0047 28.0041L104.012 12.9969L91.9517 12.9969C90.8569 12.9969 89.9694 12.1094 89.9694 11.0146C89.9694 9.91977 90.8569 9.03226 91.9517 9.03226L108.184 9.03226C108.894 8.73443 109.742 8.86835 110.328 9.43404C110.399 9.48801 110.467 9.5467 110.53 9.60961C110.895 9.96912 111.121 10.4689 111.121 11.0216V28.2015C111.121 29.2963 110.233 30.1838 109.139 30.1838C108.044 30.1838 107.156 29.2963 107.156 28.2015V15.4592L91.9621 30.6534C95.1846 34.1785 97.1504 38.8719 97.1504 44.0243C97.1504 54.9723 88.2754 63.8474 77.3274 63.8474C66.3795 63.8474 57.5044 54.9723 57.5044 44.0243C57.5044 33.0764 66.3795 24.2013 77.3274 24.2013C81.6933 24.2013 85.7295 25.6127 89.0047 28.0041ZM93.1858 44.024C93.1858 52.7824 86.0857 59.8824 77.3273 59.8824C68.569 59.8824 61.4689 52.7824 61.4689 44.024C61.4689 35.2657 68.569 28.1656 77.3273 28.1656C86.0857 28.1656 93.1858 35.2657 93.1858 44.024Z"/>
</mask>
<path fill-rule="evenodd" clip-rule="evenodd" d="M89.0047 28.0041L104.012 12.9969L91.9517 12.9969C90.8569 12.9969 89.9694 12.1094 89.9694 11.0146C89.9694 9.91977 90.8569 9.03226 91.9517 9.03226L108.184 9.03226C108.894 8.73443 109.742 8.86835 110.328 9.43404C110.399 9.48801 110.467 9.5467 110.53 9.60961C110.895 9.96912 111.121 10.4689 111.121 11.0216V28.2015C111.121 29.2963 110.233 30.1838 109.139 30.1838C108.044 30.1838 107.156 29.2963 107.156 28.2015V15.4592L91.9621 30.6534C95.1846 34.1785 97.1504 38.8719 97.1504 44.0243C97.1504 54.9723 88.2754 63.8474 77.3274 63.8474C66.3795 63.8474 57.5044 54.9723 57.5044 44.0243C57.5044 33.0764 66.3795 24.2013 77.3274 24.2013C81.6933 24.2013 85.7295 25.6127 89.0047 28.0041ZM93.1858 44.024C93.1858 52.7824 86.0857 59.8824 77.3273 59.8824C68.569 59.8824 61.4689 52.7824 61.4689 44.024C61.4689 35.2657 68.569 28.1656 77.3273 28.1656C86.0857 28.1656 93.1858 35.2657 93.1858 44.024Z" fill="#1478C9"/>
<path d="M89.0047 28.0041L87.8253 29.6194L89.2081 30.6291L90.4189 29.4183L89.0047 28.0041ZM104.012 12.9969L105.426 14.4111L108.84 10.9969L104.012 10.9969V12.9969ZM91.9517 12.9969L91.9516 14.9969H91.9517V12.9969ZM91.9517 9.03226V7.03226H91.9516L91.9517 9.03226ZM108.184 9.03226V11.0323H108.587L108.958 10.8766L108.184 9.03226ZM110.328 9.43404L108.939 10.8727L109.025 10.9556L109.12 11.0277L110.328 9.43404ZM110.53 9.60961L109.119 11.0271L109.126 11.0341L110.53 9.60961ZM107.156 15.4592H109.156V10.6308L105.742 14.045L107.156 15.4592ZM91.9621 30.6534L90.5479 29.2392L89.1957 30.5914L90.486 32.0029L91.9621 30.6534ZM90.4189 29.4183L105.426 14.4111L102.598 11.5827L87.5904 26.5899L90.4189 29.4183ZM104.012 10.9969L91.9517 10.9969V14.9969L104.012 14.9969V10.9969ZM91.9517 10.9969C91.9502 10.9969 91.951 10.9968 91.9531 10.9972C91.9551 10.9976 91.9572 10.9983 91.9592 10.9991C91.9627 11.0006 91.964 11.0019 91.9642 11.0021C91.9643 11.0022 91.9656 11.0035 91.9671 11.0071C91.9679 11.009 91.9686 11.0111 91.969 11.0131C91.9695 11.0153 91.9694 11.016 91.9694 11.0146H87.9694C87.9694 13.2139 89.7523 14.9969 91.9516 14.9969L91.9517 10.9969ZM91.9694 11.0146C91.9694 11.0132 91.9695 11.0139 91.969 11.016C91.9686 11.018 91.9679 11.0202 91.9671 11.0221C91.9656 11.0256 91.9643 11.0269 91.9642 11.0271C91.964 11.0272 91.9627 11.0285 91.9592 11.0301C91.9572 11.0309 91.9551 11.0315 91.9531 11.0319C91.951 11.0324 91.9502 11.0323 91.9517 11.0323L91.9516 7.03226C89.7523 7.03227 87.9694 8.8152 87.9694 11.0146H91.9694ZM91.9517 11.0323L108.184 11.0323V7.03226H91.9517V11.0323ZM108.958 10.8766C108.955 10.8778 108.953 10.8781 108.952 10.8781C108.952 10.8782 108.951 10.8782 108.95 10.878C108.949 10.8778 108.947 10.8772 108.944 10.8756C108.942 10.8749 108.941 10.874 108.94 10.8733C108.939 10.8725 108.938 10.8722 108.939 10.8727L111.718 7.99535C110.538 6.85612 108.833 6.59112 107.41 7.18793L108.958 10.8766ZM109.12 11.0277L109.119 11.0271L111.941 8.19217C111.814 8.06618 111.679 7.94861 111.537 7.84038L109.12 11.0277ZM109.126 11.0341C109.126 11.034 109.125 11.0327 109.123 11.0292C109.122 11.0273 109.122 11.0251 109.121 11.0231C109.121 11.0209 109.121 11.0201 109.121 11.0216H113.121C113.121 9.91182 112.664 8.90505 111.934 8.18512L109.126 11.0341ZM109.121 11.0216V28.2015H113.121V11.0216H109.121ZM109.121 28.2015C109.121 28.2029 109.121 28.2022 109.121 28.2001C109.122 28.198 109.122 28.1959 109.123 28.194C109.125 28.1904 109.126 28.1891 109.126 28.189C109.126 28.1888 109.128 28.1875 109.131 28.186C109.133 28.1852 109.135 28.1845 109.137 28.1841C109.139 28.1837 109.14 28.1838 109.139 28.1838V32.1838C111.338 32.1838 113.121 30.4009 113.121 28.2015H109.121ZM109.139 28.1838C109.137 28.1838 109.138 28.1837 109.14 28.1841C109.142 28.1845 109.144 28.1852 109.146 28.186C109.15 28.1875 109.151 28.1888 109.151 28.189C109.151 28.1891 109.153 28.1904 109.154 28.194C109.155 28.1959 109.156 28.198 109.156 28.2001C109.156 28.2022 109.156 28.2029 109.156 28.2015H105.156C105.156 30.4009 106.939 32.1838 109.139 32.1838V28.1838ZM109.156 28.2015V15.4592H105.156V28.2015H109.156ZM105.742 14.045L90.5479 29.2392L93.3764 32.0676L108.571 16.8734L105.742 14.045ZM99.1504 44.0243C99.1504 38.3532 96.9845 33.1833 93.4383 29.304L90.486 32.0029C93.3847 35.1738 95.1504 39.3906 95.1504 44.0243H99.1504ZM77.3274 65.8474C89.3799 65.8474 99.1504 56.0769 99.1504 44.0243H95.1504C95.1504 53.8677 87.1708 61.8474 77.3274 61.8474V65.8474ZM55.5044 44.0243C55.5044 56.0769 65.2749 65.8474 77.3274 65.8474V61.8474C67.484 61.8474 59.5044 53.8677 59.5044 44.0243H55.5044ZM77.3274 22.2013C65.2749 22.2013 55.5044 31.9718 55.5044 44.0243H59.5044C59.5044 34.181 67.484 26.2013 77.3274 26.2013V22.2013ZM90.184 26.3888C86.578 23.7559 82.1313 22.2013 77.3274 22.2013V26.2013C81.2552 26.2013 84.881 27.4696 87.8253 29.6194L90.184 26.3888ZM77.3273 61.8824C87.1903 61.8824 95.1858 53.887 95.1858 44.024H91.1858C91.1858 51.6778 84.9811 57.8824 77.3273 57.8824V61.8824ZM59.4689 44.024C59.4689 53.887 67.4644 61.8824 77.3273 61.8824V57.8824C69.6736 57.8824 63.4689 51.6778 63.4689 44.024H59.4689ZM77.3273 26.1656C67.4644 26.1656 59.4689 34.1611 59.4689 44.024H63.4689C63.4689 36.3702 69.6736 30.1656 77.3273 30.1656V26.1656ZM95.1858 44.024C95.1858 34.1611 87.1903 26.1656 77.3273 26.1656V30.1656C84.9811 30.1656 91.1858 36.3702 91.1858 44.024H95.1858Z" fill="#1478C9" mask="url(#path-1-outside-1)"/>
<mask id="path-3-outside-2" maskUnits="userSpaceOnUse" x="0" y="0" width="44" height="71" fill="black">
<rect fill="white" width="44" height="71"/>
<path fill-rule="evenodd" clip-rule="evenodd" d="M41.646 21.823C41.646 32.0567 33.8912 40.4791 23.9375 41.5346V55.6545H30.413C31.5078 55.6545 32.3953 56.542 32.3953 57.6368C32.3953 58.7316 31.5078 59.6191 30.413 59.6191H23.9375V66.6232C23.9375 67.718 23.0499 68.6055 21.9552 68.6055C20.8604 68.6055 19.9729 67.718 19.9729 66.6232V59.6191H13.233C12.1382 59.6191 11.2507 58.7316 11.2507 57.6368C11.2507 56.542 12.1382 55.6545 13.233 55.6545H19.9729V41.5608C9.89239 40.6278 2 32.1471 2 21.823C2 10.8751 10.8751 2 21.823 2C32.771 2 41.646 10.8751 41.646 21.823ZM21.823 37.6816C30.5814 37.6816 37.6814 30.5816 37.6814 21.8232C37.6814 13.0649 30.5814 5.96483 21.823 5.96483C13.0647 5.96483 5.96462 13.0649 5.96462 21.8232C5.96462 30.5816 13.0647 37.6816 21.823 37.6816Z"/>
</mask>
<path fill-rule="evenodd" clip-rule="evenodd" d="M41.646 21.823C41.646 32.0567 33.8912 40.4791 23.9375 41.5346V55.6545H30.413C31.5078 55.6545 32.3953 56.542 32.3953 57.6368C32.3953 58.7316 31.5078 59.6191 30.413 59.6191H23.9375V66.6232C23.9375 67.718 23.0499 68.6055 21.9552 68.6055C20.8604 68.6055 19.9729 67.718 19.9729 66.6232V59.6191H13.233C12.1382 59.6191 11.2507 58.7316 11.2507 57.6368C11.2507 56.542 12.1382 55.6545 13.233 55.6545H19.9729V41.5608C9.89239 40.6278 2 32.1471 2 21.823C2 10.8751 10.8751 2 21.823 2C32.771 2 41.646 10.8751 41.646 21.823ZM21.823 37.6816C30.5814 37.6816 37.6814 30.5816 37.6814 21.8232C37.6814 13.0649 30.5814 5.96483 21.823 5.96483C13.0647 5.96483 5.96462 13.0649 5.96462 21.8232C5.96462 30.5816 13.0647 37.6816 21.823 37.6816Z" fill="#FEBB10"/>
<path d="M23.9375 41.5346L23.7266 39.5457L21.9375 39.7354V41.5346H23.9375ZM23.9375 55.6545H21.9375V57.6545H23.9375V55.6545ZM23.9375 59.6191V57.6191H21.9375V59.6191H23.9375ZM19.9729 59.6191H21.9729V57.6191H19.9729V59.6191ZM19.9729 55.6545V57.6545H21.9729V55.6545H19.9729ZM19.9729 41.5608H21.9729V39.7374L20.1572 39.5693L19.9729 41.5608ZM24.1483 43.5234C35.1085 42.3613 43.646 33.0905 43.646 21.823H39.646C39.646 31.0229 32.674 38.597 23.7266 39.5457L24.1483 43.5234ZM25.9375 55.6545V41.5346H21.9375V55.6545H25.9375ZM23.9375 57.6545H30.413V53.6545H23.9375V57.6545ZM30.413 57.6545C30.4144 57.6545 30.4137 57.6546 30.4115 57.6542C30.4095 57.6537 30.4074 57.6531 30.4055 57.6523C30.4019 57.6508 30.4006 57.6495 30.4004 57.6493C30.4003 57.6492 30.399 57.6479 30.3975 57.6443C30.3967 57.6424 30.396 57.6403 30.3956 57.6382C30.3952 57.6361 30.3953 57.6354 30.3953 57.6368H34.3953C34.3953 55.4374 32.6123 53.6545 30.413 53.6545V57.6545ZM30.3953 57.6368C30.3953 57.6382 30.3952 57.6375 30.3956 57.6353C30.396 57.6333 30.3967 57.6312 30.3975 57.6293C30.399 57.6257 30.4003 57.6244 30.4005 57.6243C30.4006 57.6241 30.4019 57.6228 30.4055 57.6213C30.4074 57.6205 30.4095 57.6198 30.4115 57.6194C30.4137 57.619 30.4144 57.6191 30.413 57.6191V61.6191C32.6123 61.6191 34.3953 59.8362 34.3953 57.6368H30.3953ZM30.413 57.6191H23.9375V61.6191H30.413V57.6191ZM25.9375 66.6232V59.6191H21.9375V66.6232H25.9375ZM21.9552 70.6055C24.1545 70.6055 25.9375 68.8226 25.9375 66.6232H21.9375C21.9375 66.6246 21.9373 66.6239 21.9378 66.6217C21.9382 66.6197 21.9389 66.6176 21.9397 66.6157C21.9412 66.6121 21.9425 66.6108 21.9426 66.6107C21.9428 66.6105 21.9441 66.6092 21.9477 66.6077C21.9496 66.6069 21.9517 66.6062 21.9537 66.6058C21.9559 66.6054 21.9566 66.6055 21.9552 66.6055V70.6055ZM17.9729 66.6232C17.9729 68.8226 19.7558 70.6055 21.9552 70.6055V66.6055C21.9537 66.6055 21.9545 66.6054 21.9566 66.6058C21.9586 66.6062 21.9607 66.6069 21.9627 66.6077C21.9662 66.6092 21.9675 66.6105 21.9677 66.6107C21.9678 66.6108 21.9691 66.6121 21.9706 66.6157C21.9714 66.6176 21.9721 66.6197 21.9725 66.6217C21.973 66.6239 21.9729 66.6246 21.9729 66.6232H17.9729ZM17.9729 59.6191V66.6232H21.9729V59.6191H17.9729ZM19.9729 57.6191H13.233V61.6191H19.9729V57.6191ZM13.233 57.6191C13.2316 57.6191 13.2323 57.619 13.2345 57.6194C13.2365 57.6198 13.2386 57.6205 13.2405 57.6213C13.2441 57.6228 13.2454 57.6241 13.2455 57.6243C13.2457 57.6244 13.247 57.6257 13.2485 57.6293C13.2493 57.6312 13.25 57.6333 13.2504 57.6353C13.2508 57.6375 13.2507 57.6382 13.2507 57.6368H9.25072C9.25072 59.8362 11.0337 61.6191 13.233 61.6191V57.6191ZM13.2507 57.6368C13.2507 57.6354 13.2508 57.6361 13.2504 57.6382C13.25 57.6403 13.2493 57.6424 13.2485 57.6443C13.247 57.6479 13.2457 57.6492 13.2455 57.6493C13.2454 57.6495 13.2441 57.6508 13.2405 57.6523C13.2386 57.6531 13.2365 57.6537 13.2345 57.6542C13.2323 57.6546 13.2316 57.6545 13.233 57.6545V53.6545C11.0337 53.6545 9.25072 55.4374 9.25072 57.6368H13.2507ZM13.233 57.6545H19.9729V53.6545H13.233V57.6545ZM17.9729 41.5608V55.6545H21.9729V41.5608H17.9729ZM0 21.823C0 33.1898 8.68889 42.525 19.7885 43.5523L20.1572 39.5693C11.0959 38.7306 4 31.1043 4 21.823H0ZM21.823 0C9.7705 0 0 9.7705 0 21.823H4C4 11.9796 11.9796 4 21.823 4V0ZM43.646 21.823C43.646 9.7705 33.8755 0 21.823 0V4C31.6664 4 39.646 11.9796 39.646 21.823H43.646ZM35.6814 21.8232C35.6814 29.477 29.4768 35.6816 21.823 35.6816V39.6816C31.686 39.6816 39.6814 31.6862 39.6814 21.8232H35.6814ZM21.823 7.96483C29.4768 7.96483 35.6814 14.1695 35.6814 21.8232H39.6814C39.6814 11.9603 31.686 3.96483 21.823 3.96483V7.96483ZM7.96462 21.8232C7.96462 14.1695 14.1692 7.96483 21.823 7.96483V3.96483C11.9601 3.96483 3.96462 11.9603 3.96462 21.8232H7.96462ZM21.823 35.6816C14.1692 35.6816 7.96462 29.477 7.96462 21.8232H3.96462C3.96462 31.6862 11.9601 39.6816 21.823 39.6816V35.6816Z" fill="#FEBB10" mask="url(#path-3-outside-2)"/>
</svg>
