<svg width="14" height="14" viewBox="0 0 14 14" fill="none" xmlns="http://www.w3.org/2000/svg">
<path d="M14 7C14 3.12996 10.87 0 7 0C3.12996 0 0 3.12996 0 7C0 10.87 3.12996 14 7 14C10.87 14 14 10.87 14 7ZM6.89207 3.37665C7.37004 3.37665 7.75551 3.76211 7.75551 4.24009C7.75551 4.71806 7.37004 5.10352 6.89207 5.10352C6.4141 5.10352 6.02863 4.71806 6.02863 4.24009C6.02863 3.76211 6.4141 3.37665 6.89207 3.37665ZM5.79736 10.6233V9.46696H6.24449V7.09251H5.81278V5.93612H6.24449H7.53965H7.75551V9.45154H8.20264V10.6079H7.75551H6.24449H5.79736V10.6233Z" fill="white"/>
</svg>
