<svg viewBox="0 0 24 24"  xmlns="http://www.w3.org/2000/svg">
<path d="M3 5.26667C3 4.01482 4.00736 3 5.25 3H10.875C12.1176 3 13.125 4.01482 13.125 5.26667V6.5L12 6.49567C11.1286 6.49567 11 6.49567 9.99909 6.49567L8.68334 6.49567V4.85356C8.68334 4.66254 8.61815 4.47935 8.5021 4.34428C8.38606 4.20921 8.22867 4.13333 8.06456 4.13333C7.90045 4.13333 7.74306 4.20921 7.62702 4.34428C7.51098 4.47935 7.44578 4.66254 7.44578 4.85356V6.49567H4.74378C4.57967 6.49567 4.42228 6.57155 4.30624 6.70662C4.19019 6.84169 4.125 7.02488 4.125 7.2159C4.125 7.40691 4.19019 7.5901 4.30624 7.72517C4.42228 7.86024 4.57967 7.93612 4.74378 7.93612H9.09999C9.21549 9.02606 9.31862 11.4124 8.3162 12.8433C8.24156 12.9509 8.16021 13.052 8.07281 13.1457C7.39628 12.4351 7.02501 11.2828 6.96314 9.69827C6.95934 9.60369 6.93958 9.5109 6.90498 9.42521C6.87038 9.33952 6.82162 9.2626 6.76148 9.19884C6.64002 9.07007 6.47959 9.00274 6.31548 9.01166C6.23422 9.01607 6.1545 9.03907 6.08088 9.07934C6.00726 9.11961 5.94117 9.17637 5.88639 9.24637C5.83162 9.31637 5.78922 9.39824 5.76163 9.48731C5.73403 9.57639 5.72178 9.67091 5.72558 9.76549C5.7957 11.5276 6.2041 12.9057 6.93013 13.866C6.56381 13.9765 6.18648 14.0298 5.80808 14.0244C5.64397 14.0244 5.48658 14.1003 5.37054 14.2354C5.25449 14.3704 5.1893 14.5536 5.1893 14.7446C5.1893 14.9357 5.25449 15.1189 5.37054 15.2539C5.48658 15.389 5.64397 15.4649 5.80808 15.4649C6.58731 15.4867 7.35969 15.2908 8.06044 14.8935C8.59196 15.1945 9.16452 15.3799 9.75 15.4427V16.6H5.25C4.00736 16.6 3 15.5852 3 14.3333V5.26667Z" />
<path d="M9.75 13.9848V12.9071C9.61827 13.2031 9.46205 13.4867 9.27737 13.7507C9.25348 13.7881 9.22728 13.8234 9.19899 13.8564C9.38014 13.9138 9.56425 13.9567 9.75 13.9848Z"/>
<path fill-rule="evenodd" clip-rule="evenodd" d="M13.125 7.4C11.8824 7.4 10.875 8.41482 10.875 9.66667V18.7333C10.875 19.9852 11.8824 21 13.125 21H18.75C19.9926 21 21 19.9852 21 18.7333V9.66667C21 8.41482 19.9926 7.4 18.75 7.4H13.125ZM18.3183 18.7099C18.2659 18.7253 18.2115 18.7332 18.1568 18.7333C18.0282 18.7321 17.9034 18.6895 17.8011 18.6121C17.6989 18.5346 17.6247 18.4265 17.5896 18.3037L15.9391 12.4298L14.8873 16.1557H15.9391C16.0958 16.1557 16.7089 16.1557 16.986 16.1557C17.0441 16.3624 17.0828 16.5 17.1316 16.6739C17.1839 16.8598 17.2233 17 17.3152 17.3273C16.9991 17.3273 16.0958 17.3273 15.9391 17.3273H14.5604L14.2846 18.3037C14.2506 18.427 14.1767 18.5359 14.0742 18.6135C13.9717 18.6911 13.8463 18.7332 13.7174 18.7333C13.664 18.7332 13.6109 18.7253 13.5598 18.7099C13.4084 18.6683 13.2798 18.5689 13.2023 18.4335C13.1247 18.298 13.1046 18.1376 13.1462 17.9874L15.3679 10.0943C15.3693 10.0915 15.3702 10.0882 15.3712 10.0848C15.3729 10.0786 15.3747 10.072 15.3797 10.067C15.3874 10.0368 15.3993 10.0079 15.4152 9.98106C15.4284 9.95156 15.4457 9.92397 15.4664 9.89905C15.4743 9.88642 15.4836 9.87464 15.494 9.8639C15.5048 9.85122 15.5166 9.83947 15.5294 9.82875C15.5493 9.80515 15.5733 9.78531 15.6003 9.77016C15.6261 9.75164 15.6538 9.73593 15.683 9.7233C15.7132 9.70819 15.7449 9.69641 15.7776 9.68815C15.8043 9.6792 15.8321 9.67394 15.8603 9.67253C15.9112 9.66471 15.963 9.66471 16.0139 9.67253C16.0421 9.67394 16.0699 9.6792 16.0966 9.68815C16.1294 9.69641 16.1611 9.70819 16.1912 9.7233C16.2204 9.73593 16.2481 9.75164 16.2739 9.77016C16.3009 9.78531 16.3249 9.80515 16.3448 9.82875C16.3698 9.84834 16.3911 9.87213 16.4078 9.89905C16.4286 9.92397 16.4458 9.95156 16.459 9.98106C16.4749 10.0079 16.4868 10.0368 16.4945 10.067C16.4995 10.072 16.5014 10.0786 16.5031 10.0848C16.504 10.0882 16.5049 10.0915 16.5063 10.0943L18.728 17.9874C18.749 18.0615 18.755 18.139 18.7458 18.2154C18.7366 18.2918 18.7122 18.3657 18.6742 18.4328C18.6361 18.4999 18.5851 18.5589 18.5241 18.6065C18.463 18.654 18.3931 18.6892 18.3183 18.7099Z"/>
</svg>
