<svg width="320" height="131" viewBox="0 0 320 131" fill="none" xmlns="http://www.w3.org/2000/svg">
<path fill-rule="evenodd" clip-rule="evenodd" d="M52.3074 45.2427C35.1661 54.2142 31.313 67.476 32.2555 77.6813C33.3134 79.2551 35.6762 82.7693 36.3824 83.7034C36.9302 78.321 39.1131 70.4255 46.4245 63.555C56.5579 54.3106 71.2908 53.3497 81.1771 58.7187C91.0715 64.093 95.9422 75.1842 93.3834 86.147C91.7455 93.1619 88.1717 99.117 81.9424 102.147C75.6969 105.182 69.2045 106.092 63.735 105.45C64.1781 103.975 68.7588 97.2114 70.8692 81.9396C71.8492 74.8416 70.5953 69.1622 68.8876 66.1565C67.1773 63.1482 63.9659 60.6324 58.8294 61.3523C57.9299 61.4781 57.0573 61.6548 56.2169 61.8715C55.3738 62.0937 54.6085 62.356 53.9158 62.6584C53.1344 62.9769 52.3961 63.2847 51.7033 63.5872L49.7808 70.5004L51.1341 70.3104C53.2043 70.0214 54.7106 70.1926 55.8463 71.5844C56.727 72.663 59.2349 76.8142 55.8786 88.3604C51.416 103.721 50.487 103.64 49.8533 104.823C43.8442 104.507 36.3663 102.934 31.7534 105.613C29.1408 106.895 26.0852 110.883 26.6974 115.229C27.4815 120.941 31.0633 123.438 33.6705 124.142C37.0617 124.824 39.3494 124.527 42.1929 124.107C42.2842 124.094 45.5519 123.534 47.2784 122.739C50.2614 121.53 54.4394 118.551 56.0128 117.467C65.3783 120.901 73.7905 119.827 76.924 119.257C97.1263 115.352 111.814 96.0151 108.742 75.8962C104.647 49.062 76.438 33.8652 52.3074 45.2427ZM35.7836 117.507C33.4879 117.9 32.618 116.257 32.4703 116.011C32.4703 116.011 31.4151 113.704 34.3659 112.331C37.7088 110.923 40.2623 111.608 41.9942 112.015C43.0762 112.269 43.9596 112.502 43.9596 112.502C43.9596 112.502 41.0786 116.597 35.7836 117.507Z" fill="white"/>
<path d="M130.776 65.9103C133.476 63.4867 133.571 59.2052 130.989 56.3471C128.407 53.489 124.125 53.1367 121.425 55.5602C118.726 57.9837 118.63 62.2653 121.212 65.1234C123.795 67.9815 128.076 68.3338 130.776 65.9103Z" fill="white"/>
<path d="M314.449 49.3698C312.741 48.4384 307.822 47.2983 305.11 47.8684C305.102 47.871 305.092 47.871 305.081 47.871C300.009 48.5428 295.498 50.866 291.68 54.779C287.918 58.633 284.997 63.8387 282.994 70.2622C282.883 70.6235 282.789 70.9822 282.693 71.3408C282.591 71.5362 282.513 71.8226 282.47 72.216C282.287 72.9788 282.137 73.7282 282.022 74.4616C281.426 78.8938 275.706 86.4414 272.774 85.4404C271.894 85.0202 272.307 83.7034 272.425 83.2992L277.935 66.1405L277.97 66.012C278.05 65.6213 278.15 65.2385 278.265 64.8799C278.357 64.6042 278.437 64.3285 278.515 64.0555C279.739 59.1576 277.763 56.0636 277.763 56.0636C273.08 47.5713 260.337 56.6525 257.781 58.997C257.781 58.997 257.781 58.997 257.333 59.3851C257.142 58.9435 256.994 58.7053 256.994 58.7053C252.312 50.2129 239.568 59.2941 237.012 61.6387C234.971 54.0429 223.026 60.3781 223.026 60.3781L220.507 67.179L223.624 66.7641C224.387 66.6704 224.857 66.7641 224.937 66.906C225.064 67.1254 225.219 67.6795 224.854 68.8624C224.532 69.7457 224.137 70.9367 223.681 72.4034C223.351 73.4659 222.991 74.5981 222.62 75.7623L219.39 84.4394C218.891 85.6143 218.254 86.7224 217.468 87.7154C217.017 88.2855 216.662 88.6414 216.144 89.1205C215.07 90.1108 213.319 90.812 212.353 90.9726C211.901 91.0475 208.757 91.8826 209.482 89.5916C209.63 89.0777 218.735 60.1827 218.735 60.1827L205.388 61.909C205.388 61.909 205.192 62.5273 205.09 62.827C202.225 61.0231 198.809 61.6762 196.771 61.9706C192.25 62.5728 187.529 65.1609 183.593 68.8678C179.694 72.5372 176.558 77.9142 174.252 84.8971C173.589 86.8295 173.175 88.8877 173.006 91.0342C172.415 92.4982 171.768 93.9729 170.836 94.8936C169.392 96.3202 168.2 96.6922 167.319 96.9625C166.954 97.0776 165.646 97.4469 165.456 96.6039C165.439 96.5022 165.431 96.2131 165.622 95.6377C165.818 95.0756 170.264 81.0804 170.52 80.224C171.991 75.658 171.943 72.3632 170.375 70.1445C168.766 67.8748 166.178 66.997 162.668 67.4279C160.738 67.6848 158.149 68.4422 155.572 69.5075C154.082 70.1231 150.956 71.4827 148.886 72.8958C147.817 71.108 145.591 69.7002 141.064 70.2756C141.03 70.281 140.995 70.2836 140.96 70.289C140.326 70.372 139.684 70.4924 139.051 70.6423C138.43 70.7922 137.845 70.9742 137.332 71.1749C136.782 71.3756 136.261 71.5737 135.772 71.7637L135.281 71.9564L132.768 78.76L135.888 78.3451C136.763 78.2193 137.225 78.3612 137.292 78.4789C137.389 78.6475 137.569 79.1775 137.109 80.4568C136.707 81.5943 135.764 84.2815 134.714 87.4959C134.11 88.8716 130.531 98.3623 128.45 100.627C127.062 102.136 125.803 102.639 124.339 102.813C123.434 102.92 122.919 102.698 122.578 102.01C122.559 101.901 122.535 101.574 122.75 100.878C123.432 98.7156 124.092 96.6199 124.715 94.6153C125.301 92.8488 125.87 91.0877 126.423 89.3239C126.976 87.5682 127.408 86.1844 127.72 85.1781C129.269 80.323 129.43 76.8597 128.217 74.5981C126.904 72.1545 124.135 71.1829 119.99 71.7102C119.952 71.7155 119.914 71.7209 119.874 71.7236C119.219 71.8119 118.556 71.9323 117.898 72.0902C117.256 72.2455 116.649 72.4355 116.123 72.6416C115.557 72.8504 115.017 73.0538 114.512 73.2491L114.015 73.4418L111.266 80.5023L114.536 80.0687C115.449 79.9483 115.922 80.0875 115.989 80.2052C116.12 80.4327 116.279 81.0028 115.898 82.234C115.621 83.0048 115.24 84.1851 114.732 85.8365C114.235 87.4531 113.698 89.1714 113.121 90.9887C112.541 92.806 111.977 94.5403 111.422 96.1917C110.86 97.8564 110.45 99.093 110.181 99.9146C108.661 104.636 108.71 108.043 110.331 110.334C111.98 112.66 114.627 113.607 118.207 113.152C118.236 113.15 118.266 113.144 118.295 113.142C119.952 112.922 121.617 112.382 123.249 111.536C124.839 110.711 126.337 109.686 127.701 108.482C128.41 107.856 129.683 106.542 130.544 105.581C130.673 106.362 130.904 107.063 131.24 107.66C132.542 109.97 135.227 110.883 139.225 110.374C139.263 110.369 139.3 110.364 139.338 110.361C140.758 110.171 141.972 109.909 142.974 109.569C143.524 109.368 144.045 109.17 144.534 108.977L145.022 108.784L147.533 101.981L144.413 102.396C144.399 102.398 144.386 102.398 144.372 102.401C143.376 102.527 143.03 102.345 142.998 102.291C142.92 102.163 142.702 101.638 143.119 100.23C143.186 100.003 144.201 96.818 145.275 93.4457C148.293 83.9764 148.835 82.1885 148.835 82.1885C148.983 81.7549 149.163 81.3534 149.504 81.0055C150.062 80.4354 155.489 75.7061 157.827 78.1711C158.265 78.6288 158.38 79.2444 158.362 79.3755L153.375 94.6795C152.667 96.8367 152.331 98.7584 152.374 100.388C152.42 102.136 152.828 103.595 153.588 104.724C154.382 105.907 155.494 106.732 156.893 107.181C158.155 107.585 159.616 107.684 161.235 107.478C161.261 107.476 161.288 107.47 161.315 107.468C162.918 107.253 165.447 106.614 167.024 105.797C168.562 105 170.009 104.004 171.33 102.843C172.305 101.984 173.21 101.025 174.034 99.9815C174.826 101.542 175.962 102.752 177.415 103.579C179.053 104.51 181.074 104.831 183.429 104.532C183.456 104.529 183.483 104.523 183.512 104.521C191.852 103.461 196.205 99.8531 197.534 98.6246C198.124 99.5988 198.927 100.354 199.942 100.878C201.454 101.66 203.325 101.887 205.508 101.62C207.13 101.403 209.767 100.747 211.373 99.9146C212.933 99.1037 214.404 98.0973 215.744 96.917C216.592 96.1676 217.395 95.3406 218.131 94.4547L218.295 94.2593C218.423 94.9284 218.63 95.5333 218.918 96.0606C220.188 98.3864 222.859 99.3071 226.865 98.7986C226.903 98.7932 226.94 98.7879 226.978 98.7852C228.398 98.5951 229.612 98.3329 230.614 97.9929C231.164 97.7922 231.685 97.5942 232.176 97.4015L232.654 97.2141L235.315 90.3838L232.152 90.8067C231.132 90.9244 230.56 89.7896 230.949 88.6254C231.097 88.1088 236.787 69.8795 236.864 69.5931C243.907 63.9511 245.102 65.9986 245.126 66.9274C245.159 66.9862 245.204 67.2994 245.011 67.915C244.302 70.0428 240.508 82.1912 240.202 83.1038C238.628 87.8251 238.459 91.1733 239.681 93.3386C240.994 95.6725 243.711 96.5717 247.779 96.0391C249.202 95.8491 250.419 95.5868 251.415 95.2469C251.965 95.0462 252.486 94.8508 252.977 94.6581L253.466 94.4654L255.977 87.6618L252.859 88.074C251.93 88.1784 251.578 88.0258 251.536 87.9562C251.458 87.8278 251.243 87.3032 251.646 85.9302L257.155 68.7714L257.19 68.643C257.271 68.2522 257.37 67.8695 257.486 67.5108C257.547 67.3181 257.604 67.1281 257.657 66.9354C264.682 61.3175 265.874 63.3597 265.898 64.2857C265.93 64.3446 265.976 64.6577 265.782 65.2733C265.074 67.4011 261.28 79.5495 260.973 80.4622C259.4 85.1834 259.231 88.5317 260.453 90.6969C261.766 93.0308 264.483 93.9301 268.551 93.3975C271.633 93.0067 277.68 91.714 282.755 83.9362C282.843 84.1503 282.926 84.3698 283.026 84.5732C283.952 86.444 285.466 87.6244 287.161 88.7619C288.742 89.8244 291.642 90.895 296.558 90.2633C296.569 90.2607 296.577 90.2607 296.588 90.2607C299.072 89.9315 301.472 89.158 303.725 87.9616C305.964 86.7706 308.069 85.1727 309.978 83.2136C311.874 81.2678 313.595 78.9794 315.091 76.4074C316.586 73.838 317.821 70.9287 318.758 67.7651C319.607 64.9602 320.023 62.3239 319.999 59.9311C319.977 57.4822 320.079 52.4156 314.449 49.3698ZM195.635 91.2028C193.042 93.9809 187.562 96.8501 185.371 94.9231C185.067 94.5484 184.643 93.9221 184.629 93.0442C184.613 91.9549 184.804 90.6113 185.193 89.0509C185.593 87.4531 186.023 85.7054 186.818 83.7863C187.809 81.2303 188.95 78.9982 189.871 77.2023C190.767 75.4492 191.678 73.9986 192.575 72.8905C193.439 71.8253 194.322 71.0143 195.195 70.479C200.388 67.5456 202.23 69.3924 202.455 69.4727C202.458 69.4754 195.783 90.4079 195.635 91.2028ZM307.908 58.2262C307.876 59.5109 307.691 61.0392 307.358 62.7735C307.019 64.5319 306.547 66.4322 305.953 68.4048C305.352 70.3238 304.646 72.2053 303.856 73.9959C303.067 75.7837 302.253 77.395 301.44 78.784C300.65 80.133 299.853 81.2384 299.069 82.0761C298.218 82.9807 297.659 83.1734 297.447 83.2029C296.153 83.6766 294.596 83.334 294.134 82.1858C293.967 81.771 293.804 81.051 293.809 79.8386C293.814 78.6101 294 77.1273 294.359 75.4358C294.73 73.6961 295.224 71.8387 295.831 69.9036C296.424 67.9284 297.128 66.0013 297.917 64.176C298.706 62.3587 299.531 60.7153 300.369 59.2995C301.19 57.9131 302.017 56.7676 302.831 55.9004C305.841 52.7877 307.484 54.6451 307.669 55.7264C307.809 56.1841 307.94 56.9603 307.908 58.2262Z" fill="white"/>
<path d="M154.971 122.897C155.532 122.833 155.913 122.397 155.932 121.907C155.951 121.393 155.596 121.061 155.035 121.126L153.811 121.265L153.746 123.037L154.971 122.897Z" fill="white"/>
<path d="M153.894 118.982L153.837 120.529L155.022 120.392C155.494 120.339 155.835 119.956 155.851 119.514C155.867 119.089 155.559 118.789 155.078 118.845L153.894 118.982Z" fill="white"/>
<path d="M191.165 114.416C191.136 115.192 190.529 115.826 189.828 115.907C189.124 115.987 188.569 115.486 188.598 114.71C188.625 113.937 189.224 113.302 189.925 113.222C190.628 113.142 191.192 113.64 191.165 114.416Z" fill="white"/>
<path d="M203.693 117.269C202.993 117.352 202.456 116.881 202.483 116.177C202.509 115.476 203.084 114.865 203.785 114.785C204.486 114.702 205.02 115.184 204.996 115.888C204.969 116.589 204.394 117.189 203.693 117.269Z" fill="white"/>
<path d="M203.822 113.776C203.216 113.846 202.74 113.442 202.762 112.813C202.786 112.173 203.296 111.654 203.9 111.584C204.51 111.512 204.985 111.919 204.961 112.558C204.939 113.19 204.429 113.706 203.822 113.776Z" fill="white"/>
<path fill-rule="evenodd" clip-rule="evenodd" d="M110.533 130.389C111.143 130.501 112.133 130.56 113.484 130.56C116.26 130.56 120.049 130.316 122.444 130.105L234.099 118.698C234.308 118.682 234.51 118.674 234.698 118.674C234.837 118.674 234.969 118.679 235.106 118.687C235.181 118.685 235.256 118.685 235.331 118.685C236.132 118.685 236.913 118.77 237.651 118.942C239.716 119.421 241.325 120.459 242.184 121.862C242.825 122.908 243.003 124.096 242.699 125.298L242.621 125.603L242.895 125.448C244.458 124.562 245.868 123.593 247.081 122.576C249.296 120.721 250.757 118.974 251.675 117.081C253.276 113.781 252.857 109.587 250.677 107.112C250.507 106.922 250.344 106.726 250.18 106.531L250.178 106.528C248.559 104.613 246.885 102.631 240.597 102.631C239.617 102.631 238.532 102.679 237.375 102.778C236.61 102.843 192.253 108.279 156.614 112.647C134.707 115.334 115.79 117.651 115.441 117.686C115.409 117.689 115.361 117.694 115.296 117.702L115.294 117.703C114.993 117.737 114.371 117.809 113.591 117.809C111.945 117.809 109.685 117.483 108.272 115.931C107.193 114.739 106.758 112.992 106.981 110.736L107.008 110.476L106.782 110.607C104.787 111.761 102.357 119.15 102.642 122.132C102.875 124.567 103.697 126.5 105.09 127.878C106.637 129.412 108.321 129.977 110.533 130.389ZM213.032 113.597C213.032 114.506 212.293 115.243 211.381 115.243C210.469 115.243 209.729 114.506 209.729 113.597C209.729 112.688 210.469 111.951 211.381 111.951C212.293 111.951 213.032 112.688 213.032 113.597ZM142.141 122.905C142.942 122.905 143.591 122.258 143.591 121.46C143.591 120.662 142.942 120.015 142.141 120.015C141.341 120.015 140.691 120.662 140.691 121.46C140.691 122.258 141.341 122.905 142.141 122.905ZM146.241 118.596L147.989 118.396L147.764 124.514L148.795 124.396L149.018 118.278L150.766 118.077L150.801 117.116L146.276 117.636L146.241 118.596ZM156.78 121.811C156.748 122.71 155.983 123.572 155.078 123.674L152.9 123.925L153.104 118.313L155.242 118.066C156.074 117.973 156.729 118.575 156.7 119.407C156.681 119.921 156.38 120.315 156.082 120.604C156.514 120.796 156.802 121.219 156.78 121.811ZM159.806 117.545L158.99 117.638L158.786 123.251L159.602 123.157L159.806 117.545ZM162.188 117.272L163.004 117.178L162.83 121.987L165.12 121.725L165.091 122.525L161.984 122.881L162.188 117.272ZM168.082 116.594L167.265 116.688L167.061 122.301L167.878 122.207L168.082 116.594ZM172.528 118.409C173.409 118.307 174.085 118.979 174.053 119.846C174.021 120.729 173.296 121.586 172.343 121.696L170.238 121.937L170.267 121.136L172.292 120.903C172.772 120.847 173.17 120.419 173.189 119.945C173.207 119.464 172.837 119.132 172.356 119.188L171.621 119.274C170.756 119.373 170.093 118.762 170.122 117.903C170.155 117.047 170.866 116.276 171.731 116.177L173.476 115.976L173.449 116.739L171.8 116.929C171.328 116.982 170.971 117.36 170.955 117.809C170.939 118.259 171.272 118.556 171.741 118.503L172.528 118.409ZM177.028 115.569L176.212 115.663L176.008 121.275L176.824 121.182L177.028 115.569ZM182.694 114.092L182.726 113.19L184.81 112.952L184.544 120.293L183.518 120.411L183.752 113.969L182.694 114.092ZM188.961 119.975L191.742 115.738C192.062 115.243 192.215 114.766 192.236 114.282C192.282 113.013 191.283 112.082 189.984 112.232C188.652 112.384 187.556 113.554 187.511 114.823C187.465 116.113 188.485 117.041 189.814 116.889L189.887 116.881L188.163 119.555L188.961 119.975ZM197.529 112.39L195.015 112.679L195.048 111.777L199.196 111.3L197.357 114.542C198.337 114.574 199.196 115.28 199.156 116.412C199.11 117.702 198.16 118.867 196.6 119.046C195.187 119.209 194.36 118.364 194.403 117.229L195.45 117.108C195.499 117.815 196.06 118.125 196.637 118.058C197.496 117.959 198.02 117.304 198.047 116.613C198.071 115.92 197.612 115.377 196.565 115.497L195.716 115.593L197.529 112.39ZM202.507 114.4C201.833 114.865 201.419 115.601 201.392 116.345C201.349 117.539 202.34 118.388 203.659 118.235C204.988 118.082 206.04 117.001 206.083 115.805C206.11 115.061 205.78 114.408 205.103 114.1C205.608 113.677 205.962 113.083 205.987 112.422C206.027 111.3 205.098 110.497 203.935 110.631C202.775 110.765 201.776 111.79 201.736 112.912C201.712 113.573 202.029 114.089 202.507 114.4Z" fill="white"/>
<path fill-rule="evenodd" clip-rule="evenodd" d="M69.6395 25.9214C63.2705 25.9589 62.4408 24.2085 59.0094 19.6585C56.8291 16.9312 53.9158 15.312 49.9044 14.873H49.899C49.9017 14.873 49.9044 14.873 49.9044 14.873C50.2749 14.8142 50.6508 14.7687 51.0294 14.7365C52.823 14.5813 54.6381 14.7285 56.2948 15.1353L56.3028 15.138C55.0731 10.8503 55.2369 5.28599 59.3316 0C48.3739 0.596849 33.2248 7.58507 25.6637 16.0882C18.2718 24.4039 14.6335 32.1629 12.9768 37.3124C11.594 41.7473 11.5887 43.7707 11.3282 45.1357C11.3282 45.1357 1.55733 54.5755 0 67.6259L1.39086 70.5406C2.46219 68.204 3.93091 66.2475 5.40769 64.6658C5.40769 64.6631 5.40501 64.6577 5.40501 64.6577C5.40501 64.6577 5.46676 64.5988 5.55268 64.5132C8.34514 61.5691 11.1081 60.0087 11.2396 59.9365C13.1917 58.6732 15.3531 57.624 17.2541 57.525C17.2541 57.525 13.9193 58.898 11.5538 61.7832C12.2277 65.7524 13.1353 69.2933 14.1851 71.5335C16.5077 77.2183 20.1271 83.797 24.4286 88.2854C25.849 89.8324 27.6775 91.5106 29.6107 93.1138L32.1481 92.6909C26.4263 83.0369 24.9361 69.2131 29.6349 57.5705C25.5509 63.4025 24.2165 69.6279 24.1359 76.7125C24.0795 76.3003 24.0285 75.8935 23.9829 75.492C22.737 64.2322 26.9015 53.0018 35.0426 45.0982C35.1768 44.9671 35.3111 44.8386 35.448 44.7101C39.2313 41.1371 42.5043 38.0779 48.9753 35.2194C50.879 34.379 54.7616 33.105 54.7831 33.0997C54.9764 33.0515 55.167 33.0033 55.3604 32.9578C54.6327 32.8347 53.9024 32.7517 53.164 32.741C49.6439 32.6982 44.1798 32.998 44.1798 32.998C44.1798 32.998 46.3064 30.0512 46.4729 29.5614C46.8622 29.0181 47.4287 28.7959 47.9335 28.9913L48.1081 29.0261C50.3528 29.9147 51.2818 30.5276 53.2902 31.186C54.477 31.5768 55.5725 31.9408 56.7915 31.997C56.9741 32.005 57.1432 32.013 57.2963 32.0184C58.1877 32.0532 59.0765 32.005 59.9572 31.8792L60.4861 31.8043C63.2007 31.2529 65.0641 30.9558 65.0641 30.9558C87.4494 27.8512 114.641 24.3102 128.222 22.5438L129.017 20.0466C109.504 21.8559 77.6812 25.9214 69.6395 25.9214ZM55.7712 24.6608C54.3588 24.6019 53.5131 23.5394 53.5641 22.2734C53.5802 21.8586 53.7171 21.4785 53.9239 21.152C54.6086 21.5615 55.2208 21.9335 55.6289 22.7338C56.1176 23.6946 56.9311 23.8124 57.5594 23.9061C57.1164 24.3905 56.4774 24.6903 55.7712 24.6608Z" fill="white"/>
</svg>
