<svg viewBox="0 0 20 15" xmlns="http://www.w3.org/2000/svg">
  <path d="M19.3705 9.04347L14.6394 13.7746C14.083 14.331 13.8379 14.1865 13.7458 14.132C13.6164 14.0604 13.5376 13.9225 13.5418 13.7746V10.1903C13.5418 9.95542 13.3514 9.76503 13.1167 9.76503H10.0779C6.75503 9.76503 4.42951 10.3049 2.76003 11.4641C1.51887 12.3257 0.729921 13.4641 0 14.7012C0.504053 8.44507 3.88802 5.27613 10.0778 5.27613H13.117C13.3516 5.27613 13.5419 5.08616 13.5421 4.85157V1.26665C13.5381 1.11886 13.6167 0.981198 13.7461 0.909512C13.8385 0.855071 14.0835 0.710564 14.6399 1.26679L19.371 5.99795H19.3709C19.7741 6.40211 20.0004 6.9498 20.0002 7.52054C20.0002 8.09143 19.7738 8.63897 19.3705 9.04313L19.3705 9.04347Z"/>
</svg>
