<svg xmlns="http://www.w3.org/2000/svg" width="32" height="32" viewBox="0 0 32 32" fill="none">
<mask id="mask0" style="mask-type:alpha" maskUnits="userSpaceOnUse" x="0" y="0" width="32" height="32">
<circle cx="16" cy="16" r="16" fill="#F3F4F5"/>
</mask>
<g mask="url(#mask0)">
<path d="M4 26.8682V50.049C3.99985 50.301 4.10084 50.5427 4.27933 50.721C4.45782 50.8993 4.70007 50.9997 4.95272 51H27.0484C27.3011 50.9997 27.5433 50.8993 27.7218 50.721C27.9003 50.5427 28.0002 50.301 28 50.049V26.8682C28.0004 26.1925 27.7757 25.5357 27.3614 25.001C26.9471 24.4664 26.3667 24.0842 25.7109 23.9142L20.0433 22.4496C19.9463 22.4249 19.8601 22.3686 19.7987 22.2897C19.7373 22.2108 19.7036 22.1138 19.7037 22.014V20.4599C20.2918 19.9385 20.7628 19.2988 21.0852 18.5829C21.4077 17.8671 21.5742 17.0912 21.5743 16.3065V11.5467C21.5711 10.0745 20.9828 8.66373 19.9378 7.62385C18.8928 6.58397 17.4769 6 16.0006 6C14.5243 6 13.1084 6.58397 12.0634 7.62385C11.0183 8.66373 10.4289 10.0745 10.4257 11.5467V16.3065C10.4258 17.0912 10.5935 17.8671 10.9159 18.5829C11.2384 19.2988 11.7082 19.9385 12.2963 20.4599V22.014C12.2965 22.1136 12.2635 22.2105 12.2024 22.2894C12.1414 22.3682 12.0557 22.4245 11.959 22.4496L6.2914 23.9142C5.63533 24.0839 5.05443 24.4661 4.63978 25.0008C4.22514 25.5354 3.99969 26.1923 4 26.8682Z" fill="#CBD1D7"/>
</g>
</svg>
