<svg width="50" height="50" viewBox="0 0 50 50" fill="none" xmlns="http://www.w3.org/2000/svg">
<path d="M0 21.64C0 3.81946 3.81946 0 21.64 0H28.36C46.1805 0 50 3.81946 50 21.64V28.36C50 46.1805 46.1805 50 28.36 50H21.64C3.81946 50 0 46.1805 0 28.36V21.64Z" fill="#F3F4F5"/>
<path d="M30.5 31.667C31.1443 31.0227 31.1444 29.978 30.5 29.3336L29.2223 28.0559C29.8334 27.167 30.2222 26.1115 30.2222 24.9448C30.2222 22.0559 27.8333 19.667 24.9444 19.667C22.0556 19.667 19.6667 22.0559 19.6667 24.9448C19.6667 27.8337 22.0556 30.2226 24.9444 30.2226C26.1111 30.2226 27.1667 29.8336 28.0556 29.2225L30.5 31.667ZM21.3333 25.0003C21.3333 23.0003 22.9444 21.3892 24.9444 21.3892C26.9444 21.3892 28.5555 23.0003 28.5555 25.0003C28.5555 27.0003 26.9444 28.6114 24.9444 28.6114C22.9444 28.6114 21.3333 27.0003 21.3333 25.0003Z" fill="#183041"/>
</svg>
