<svg width="24" height="24" viewBox="0 0 24 24" fill="none" xmlns="http://www.w3.org/2000/svg">
<path d="M20.5857 21.6642C21.3668 20.8832 21.3668 19.6168 20.5858 18.8358L18.3334 16.5833C19.2501 15.25 19.8333 13.6667 19.8333 11.9167C19.8333 7.58336 16.2499 4 11.9166 4C7.58332 4 4 7.58336 4 11.9167C4 16.25 7.58332 19.8334 11.9166 19.8334C13.6666 19.8334 15.25 19.25 16.5834 18.3333L20.2499 22L20.5857 21.6642ZM6.49999 12C6.49999 9 8.91664 6.58334 11.9166 6.58334C14.9166 6.58334 17.3333 9 17.3333 12C17.3333 15 14.9166 17.4167 11.9166 17.4167C8.91664 17.4167 6.49999 15 6.49999 12Z" fill="#1A1C1F"/>
</svg>
