<svg viewBox="0 0 24 24" xmlns="http://www.w3.org/2000/svg">
<path d="M18.6052 5.22652L5.23828 18.5934L6.34695 19.7021L10.2548 15.7942L13.1012 18.9158C13.3292 19.1438 13.6673 19.2067 13.9582 19.0888C14.2491 18.9708 14.4457 18.6799 14.4457 18.3654V11.6112L19.7217 6.33519L18.6052 5.22652Z" />
<path d="M14.4372 7.16899V5.78513C14.4372 5.47061 14.2485 5.17968 13.9497 5.06174C13.6588 4.93594 13.3207 5.0067 13.0927 5.23472L9.71951 8.93028H7.36065C6.92819 8.93028 6.57436 9.28411 6.57436 9.71657V14.4343C6.57436 14.5994 6.63726 14.7488 6.73161 14.8746L14.4372 7.16899Z"/>
</svg>
