<svg viewBox="0 0 24 24" xmlns="http://www.w3.org/2000/svg">
<path d="M12.4053 4.97938C12.1132 4.86096 11.7737 4.92412 11.5447 5.15307L8.15789 8.87149H5.78947C5.35526 8.87149 5 9.22675 5 9.66096V14.3978C5 14.832 5.35526 15.1873 5.78947 15.1873H8.15789L11.5447 18.9057C11.7737 19.1346 12.1132 19.1978 12.4053 19.0794C12.7053 18.9531 12.8947 18.661 12.8947 18.3452V5.71359C12.8947 5.38991 12.7053 5.1057 12.4053 4.97938Z" />
<path d="M14.4746 6.50293V8.08188C16.6536 8.08188 18.422 9.8503 18.422 12.0292C18.422 14.2082 16.6536 15.9766 14.4746 15.9766V17.5556C17.522 17.5556 20.0009 15.0766 20.0009 12.0292C20.0009 8.98188 17.522 6.50293 14.4746 6.50293Z"/>
<path d="M16.843 12.0296C16.843 10.7269 15.7772 9.66113 14.4746 9.66113V11.2401C14.9088 11.2401 15.2641 11.5953 15.2641 12.0296C15.2641 12.4638 14.9088 12.819 14.4746 12.819V14.398C15.7772 14.398 16.843 13.3322 16.843 12.0296Z"/>
</svg>
