<svg width="65" height="79" viewBox="0 0 65 79" fill="none" xmlns="http://www.w3.org/2000/svg">
<path d="M41.4132 34.2539L30.4688 45.198L23.4175 38.1469L25.3325 36.2319L30.4688 41.368L39.4982 32.3389L41.4132 34.2539Z" fill="#3289E0"/>
<path fill-rule="evenodd" clip-rule="evenodd" d="M30.7613 78.6861C19.6836 73.4176 0 61.2227 0 49.5457V13.9901C0 12.5718 0.884155 11.3048 2.21506 10.8145L31.0032 0.208726C31.7513 -0.0668773 32.5726 -0.069631 33.3226 0.200951L62.7636 10.8236C64.1056 11.3078 65 12.5813 65 14.0079V49.5457C65 60.7151 44.8607 73.1925 33.5563 78.6742C32.67 79.104 31.6508 79.1091 30.7613 78.6861ZM49.0885 38.3743C49.0885 47.5355 41.6616 54.9622 32.5 54.9622C23.3384 54.9622 15.9115 47.5355 15.9115 38.3743C15.9115 29.213 23.3384 21.7864 32.5 21.7864C41.6616 21.7864 49.0885 29.213 49.0885 38.3743Z" fill="#3289E0"/>
</svg>
