<svg width="252" height="88" viewBox="0 0 252 88" fill="none" xmlns="http://www.w3.org/2000/svg">
  <path d="M45.5376 0.287109H27.052L0 54.3V67.7549H42.6391V87.7764H59.3212V67.7549H71.4302V52.9481H59.3212V33.5704H42.6391V52.9481H18.6788L45.5376 0.287109Z" fill="#183041"/>
  <path d="M226.107 0.287109H207.622L180.57 54.3V67.7549H223.209V87.7764H239.891V67.7549H252V52.9481H239.891V33.5704H223.209V52.9481H199.249L226.107 0.287109Z" fill="#183041"/>
  <path fill-rule="evenodd" clip-rule="evenodd" d="M97.8878 77.9095C106.477 79.3225 115.304 78.7235 123.758 76.627C129.584 75.1832 135.606 72.9715 141.005 70.1569C142.05 74.277 142.369 78.5046 142.031 82.763L142.027 82.8167V82.8705C142.02 83.5578 141.754 84.1875 141.339 84.7251C141.14 84.9862 140.682 85.4624 140.382 85.5852C135.74 87.1903 130.875 88.0005 125.96 88.0005C115.63 88.0081 105.762 84.4333 97.8878 77.9095ZM148.341 81.9067C148.818 71.9347 146.066 62.4274 140.398 54.1834C137.439 49.8751 133.623 45.7934 129.438 42.6294C129.365 42.495 129.273 42.2646 129.242 42.1264C130.018 35.2724 132.758 28.2878 136.847 22.7354C137.008 22.7086 137.208 22.697 137.327 22.7124C142.431 25.4041 147.219 29.29 151.162 33.4677C158.283 41.0129 163.301 50.1516 166.46 60.0007C166.503 60.3194 166.476 61.1065 166.414 61.4291C162.713 69.9841 156.357 77.1722 148.341 81.9067ZM119.838 1.41688C121.253 0.107514 124.15 0 125.96 0C133.565 0 140.974 1.93526 147.569 5.65602C138.523 10.3598 131.409 17.5594 127.094 26.8901C124.953 31.5209 123.385 36.9504 122.936 42.0995C120.057 43.9158 114.846 44.6684 111.722 44.941C108.533 45.2213 105.043 45.2827 101.831 44.9295C101.861 38.7704 102.903 32.3388 104.701 26.4639C107.618 16.9258 112.652 8.3746 119.838 1.41688Z" fill="#3289E0"/>
  <path d="M133.417 67.3284C135.015 66.5835 137.129 65.5007 138.666 64.3103C136.214 57.2337 131.68 51.5778 125.658 47.2005C113.853 51.9272 101.195 52.5454 89.2668 47.8072C86.7651 46.8165 84.3249 45.6454 82.0115 44.267C82.0038 44.4014 82 44.5357 82 44.6663C82 52.4878 83.9714 59.4262 87.8949 66.1457C88.5213 67.2132 90.5849 69.5784 91.7761 69.9931C101.671 73.2108 112.285 73.4028 122.388 71.0644C126.146 70.1928 129.916 68.9564 133.417 67.3284Z" fill="#FEBB10"/>
  <path d="M153.05 26.4441C160.087 33.0868 165.443 41.7646 169.221 50.7534C169.682 48.5264 169.997 46.2686 170.001 44.0032C170.001 30.8982 164.214 18.5919 154.161 10.2059C153.973 10.1022 153.515 9.95633 153.219 9.8949C148.816 11.8224 144.769 14.4027 141.28 17.7164C145.53 20.074 149.53 23.1228 153.05 26.4441Z" fill="#FEBB10"/>
  <path d="M83.0833 37.8861C86.8761 40.4895 91.1186 42.4823 95.557 43.7148C95.6531 38.7309 96.3602 33.6241 97.5092 28.8282C99.8226 19.1752 104.107 10.1825 110.632 2.7373C96.1219 8.11676 85.3505 20.8608 82.6068 36.212C82.5376 36.5883 82.722 37.6442 83.0833 37.8861Z" fill="#FEBB10"/>
</svg>
